<svg width="44" height="50" viewBox="0 0 44 50" fill="none" xmlns="http://www.w3.org/2000/svg">
<g clip-path="url(#clip0_448_316)">
<path d="M2.91895 46.3815C3.59737 46.3815 4.10747 46.5854 4.10747 47.1871V47.2867C4.10747 47.5702 3.98858 47.7592 3.73608 47.9034V48.0228C4.03311 48.1621 4.16692 48.3957 4.16692 48.709V48.8533C4.16692 49.3704 3.77571 49.7137 2.9833 49.7137H0.47757V46.3818L2.91895 46.3815ZM1.46303 47.6945H2.74061C2.94856 47.6945 3.09708 47.6299 3.09708 47.4458V47.3613C3.09708 47.1873 2.94856 47.1175 2.74061 47.1175H1.46303V47.6945ZM1.46303 48.9775H2.76532C3.01292 48.9775 3.16143 48.893 3.16143 48.6991V48.6195C3.16143 48.4156 3.01292 48.351 2.76532 48.351H1.46303V48.9775Z" fill="white"/>
<path d="M7.20779 46.3815C7.95546 46.3815 8.37648 46.8093 8.37648 47.396V47.5552C8.37648 47.963 8.16849 48.2962 7.81693 48.4653L8.51521 49.7134H7.39592L6.762 48.5795H5.72203V49.7134H4.71185V46.3815H7.20779ZM5.72222 47.7989H6.97509C7.23757 47.7989 7.3565 47.7043 7.3565 47.5105V47.4458C7.3565 47.2668 7.23757 47.1525 6.97509 47.1525H5.72222V47.7989Z" fill="white"/>
<path d="M11.6347 46.3815L13.0607 49.7134H12.0655L11.7981 49.0869H9.92135L9.6539 49.7134H8.69809L10.1242 46.3815H11.6347ZM10.2629 48.2962H11.4563L10.9611 47.1424H10.7531L10.2629 48.2962Z" fill="white"/>
<path d="M15.1151 46.3319C16.1601 46.3319 16.8434 46.685 16.8434 47.4459V47.5305H15.8729V47.4459C15.8729 47.1675 15.5707 47.0879 15.1102 47.0879H14.9914C14.5111 47.0879 14.2239 47.1626 14.2239 47.3118V47.3515C14.2239 47.5454 14.412 47.5852 15.3926 47.6947C16.4573 47.824 16.9028 48.1124 16.9028 48.6943V48.7439C16.9028 49.3606 16.3037 49.7633 15.1399 49.7633H15.0161C13.8078 49.7633 13.2037 49.3555 13.2037 48.5997V48.525H14.1693V48.5997C14.1693 48.9328 14.4764 49.0026 15.021 49.0026H15.1399C15.6302 49.0026 15.9223 48.938 15.9223 48.7638V48.719C15.9223 48.535 15.6549 48.4854 14.7289 48.3858C13.7483 48.2863 13.2482 48.0029 13.2482 47.4011V47.3564C13.2482 46.6901 13.9166 46.3319 14.9914 46.3319H15.1151Z" fill="white"/>
<path d="M19.9335 46.3815V47.207H19.1313V48.8879H19.9335V49.7134H17.3238V48.8879H18.126V47.207H17.3238V46.3815H19.9335Z" fill="white"/>
<path d="M21.4881 46.3815V48.8879H23.5926V49.7134H20.4777V46.3815H21.4881Z" fill="white"/>
<path d="M27.3266 46.3815V47.1871H24.9992V47.6348H27.0641V48.3908H24.9992V48.908H27.3513V49.7136H23.9889V46.3817L27.3266 46.3815Z" fill="white"/>
<path d="M30.4313 46.3815V47.207H29.6291V48.8879H30.4313V49.7134H27.8216V48.8879H28.6239V47.207H27.8216V46.3815H30.4313Z" fill="white"/>
<path d="M33.4725 46.3815C34.2202 46.3815 34.6412 46.8093 34.6412 47.396V47.5552C34.6412 47.963 34.4333 48.2962 34.0817 48.4653L34.7799 49.7134H33.6609L33.027 48.5795H31.987V49.7134H30.9767V46.3815H33.4725ZM31.987 47.7989H33.2399C33.5024 47.7989 33.6212 47.7043 33.6212 47.5105V47.4458C33.6212 47.2668 33.5024 47.1525 33.2399 47.1525H31.987V47.7989Z" fill="white"/>
<path d="M37.8997 46.3816L39.3258 49.7135H38.3305L38.0631 49.0869H36.1863L35.9189 49.7135H34.963L36.3892 46.3816H37.8997ZM37.459 45.5361C37.5382 45.5361 37.5679 45.4764 37.5679 45.2973H38.0731C38.0731 45.7598 37.8899 45.9937 37.4888 45.9937C37.0678 45.9937 36.9739 45.7349 36.8004 45.7349C36.7061 45.7349 36.6766 45.8096 36.6766 45.9737H36.1765C36.1765 45.5162 36.3548 45.2823 36.7559 45.2823C37.1867 45.2823 37.2955 45.5361 37.459 45.5361ZM36.5279 48.2963H37.7213L37.2261 47.1425H37.0182L36.5279 48.2963Z" fill="white"/>
<path d="M41.5542 46.3319C42.6437 46.3319 43.4904 46.8739 43.4904 47.8538V48.2516C43.4904 49.2262 42.6437 49.7634 41.5542 49.7634H41.3561C40.2419 49.7634 39.3802 49.2262 39.3802 48.2516V47.8538C39.3802 46.8742 40.2419 46.3319 41.3561 46.3319H41.5542ZM40.4053 47.8685V48.2265C40.4053 48.6542 40.752 48.8879 41.3561 48.8879H41.5146C42.1138 48.8879 42.4653 48.6542 42.4653 48.2265V47.8685C42.4653 47.4408 42.1138 47.2071 41.5146 47.2071H41.3561C40.752 47.2071 40.4053 47.4408 40.4053 47.8685Z" fill="white"/>
<path fill-rule="evenodd" clip-rule="evenodd" d="M13.3824 23.58L14.5998 21.3495C14.3317 20.0309 14.0103 18.7076 13.6367 17.3847C12.9896 15.1771 12.1989 12.9195 11.2686 10.6226C9.72005 6.9356 8.09242 4.08486 7.27233 2.83301L3.78986 3.18263C3.78986 3.18263 6.10042 6.40895 8.57039 11.2171L8.57352 11.214L8.78767 11.6442C9.3608 12.7773 9.93846 13.9917 10.4954 15.2686L10.5707 15.4396L10.5698 15.4405C11.6636 17.9693 12.6687 20.7343 13.3824 23.58Z" fill="white"/>
<path fill-rule="evenodd" clip-rule="evenodd" d="M17.3128 30.5397C17.0494 29.5933 16.0594 27.2202 15.3549 26.2903V26.2894C14.5098 25.0493 13.6997 24.2735 13.5094 24.0983C14.3886 27.8031 14.8376 31.4954 14.246 35.1006C14.787 35.7215 16.8721 36.7192 17.3432 36.8931C17.3477 36.8834 17.3518 36.8732 17.3573 36.8635L17.3564 36.8631C17.9439 34.8572 17.9234 32.7317 17.3136 30.5399L17.3128 30.5397Z" fill="white"/>
<path fill-rule="evenodd" clip-rule="evenodd" d="M30.7848 23.58L29.5674 21.3495C29.8355 20.0309 30.1569 18.7076 30.5306 17.3847C31.1776 15.1771 31.9683 12.9195 32.8987 10.6226C34.4472 6.9356 36.0749 4.08486 36.895 2.83301L40.3774 3.18263C40.3774 3.18263 38.0668 6.40895 35.5968 11.2171L35.5937 11.214L35.3795 11.6442C34.8064 12.7773 34.2288 13.9917 33.6718 15.2686L33.5965 15.4396L33.5974 15.4405C32.5036 17.9693 31.4986 20.7343 30.7848 23.58Z" fill="white"/>
<path fill-rule="evenodd" clip-rule="evenodd" d="M26.8549 30.5397C27.1183 29.5933 28.1083 27.2202 28.8128 26.2903V26.2894C29.6579 25.0493 30.4681 24.2735 30.6583 24.0983C29.7791 27.8031 29.3301 31.4954 29.9218 35.1006C29.3807 35.7215 27.2956 36.7192 26.8245 36.8931C26.8201 36.8834 26.816 36.8732 26.8105 36.8635L26.8114 36.8631C26.2238 34.8572 26.2443 32.7317 26.8541 30.5399L26.8549 30.5397Z" fill="white"/>
<path fill-rule="evenodd" clip-rule="evenodd" d="M22.083 7.22966C17.249 7.22966 12.7086 5.96719 8.77051 3.75269C9.94224 5.96481 11.6639 9.51002 12.7332 12.3384C13.751 15.0312 14.5599 17.7511 15.1498 20.4565L21.6961 8.46264L21.9189 8.09551L22.083 7.87583L22.2472 8.09551L22.47 8.46264L29.0162 20.4565C29.6062 17.7513 30.4149 15.0312 31.433 12.3384C32.5022 9.51002 34.2239 5.96481 35.3956 3.75269C31.4577 5.96719 26.9173 7.22966 22.083 7.22966Z" fill="white"/>
<path fill-rule="evenodd" clip-rule="evenodd" d="M35.8564 12.5104L34.461 15.5678C35.9718 17.8869 36.8499 20.651 36.8499 23.6159C36.8499 30.3101 32.3727 35.9812 26.2455 37.8143C25.9084 36.3835 25.6458 34.8429 25.6458 33.5098C25.6458 32.0104 25.9782 30.6006 26.5248 29.2643C26.7726 28.5479 27.0647 27.9046 27.3613 27.3463C27.8917 26.3474 28.4766 25.5269 28.9791 24.9091C29.4329 24.2599 29.7816 23.8373 29.925 23.6696L22.1256 9.38005V9.37915L22.1094 9.35052L22.0822 9.30054L22.0818 9.30143L22.0814 9.30054L22.0541 9.35052L22.0379 9.37915V9.38005L14.2385 23.6696C14.3819 23.8373 14.7307 24.2599 15.1845 24.9091C15.6869 25.5271 16.2716 26.3474 16.8022 27.3463C17.0988 27.9046 17.3909 28.5479 17.6387 29.2643C18.1853 30.6006 18.5177 32.0104 18.5177 33.5098C18.5177 34.8429 18.2554 36.3835 17.9181 37.8143C11.7909 35.9812 7.31362 30.3103 7.31362 23.6159C7.31362 20.651 8.19199 17.8869 9.7025 15.5678L8.30714 12.5104C5.91828 15.5431 4.4895 19.3734 4.4895 23.5403C4.4895 32.8071 11.5418 40.4189 20.55 41.2609C20.5837 41.264 20.6174 41.2674 20.6509 41.2695C20.7448 41.2781 20.8388 41.2858 20.933 41.2925C21.0388 41.3 21.1447 41.307 21.251 41.3127C21.3019 41.3158 21.353 41.3172 21.404 41.3202C21.4943 41.3247 21.5851 41.3278 21.676 41.331C21.7202 41.3319 21.7646 41.3342 21.8088 41.3342C21.885 41.3364 21.9613 41.3364 22.0379 41.3373V41.3382C22.0526 41.3382 22.0669 41.3377 22.0818 41.3377C22.0965 41.3377 22.1108 41.3382 22.1255 41.3382V41.3373C22.2019 41.3368 22.2784 41.3364 22.3546 41.3342C22.3991 41.3333 22.4432 41.3319 22.4875 41.331C22.5783 41.3279 22.6689 41.3245 22.7595 41.3202C22.8107 41.318 22.8615 41.3158 22.9124 41.3127C23.0185 41.3073 23.1246 41.3001 23.2304 41.2925C23.3246 41.286 23.4186 41.2777 23.5125 41.2695C23.5462 41.2664 23.5798 41.2641 23.6134 41.2609C32.6216 40.4191 39.6739 32.8073 39.6739 23.5403C39.6739 19.3734 38.2453 15.5431 35.8564 12.5104ZM22.0167 28.7167C19.2206 28.7167 16.9458 26.4321 16.9458 23.6241C16.9458 20.8161 19.2206 18.5316 22.0167 18.5316C24.8128 18.5316 27.0876 20.8161 27.0876 23.6241C27.0876 26.4321 24.8128 28.7167 22.0167 28.7167Z" fill="white"/>
<path d="M22.0111 21.8031L20.1302 23.1754L20.8485 25.396H23.1735L23.8921 23.1754L22.0111 21.8031Z" fill="white"/>
<path d="M18.3188 22.5873L18.1121 21.4207C17.781 22.0103 17.5787 22.6827 17.5435 23.399L18.3188 22.5873Z" fill="white"/>
<path d="M19.7102 26.9484L18.8767 26.8289C19.2323 27.1795 19.6455 27.4711 20.1013 27.6875L19.7102 26.9484Z" fill="white"/>
<path d="M23.2287 19.299C22.8435 19.1898 22.4374 19.1313 22.0176 19.1309C22.0154 19.1309 22.0145 19.1309 22.0122 19.1309C22.01 19.1309 22.0091 19.1309 22.0069 19.1309C21.5871 19.1313 21.1807 19.19 20.7957 19.299L22.0069 19.8713V19.8744L22.0091 19.8753L22.0122 19.8744L22.0154 19.8753L22.0176 19.8744V19.8713L23.2287 19.299Z" fill="white"/>
<path d="M18.5048 20.8344L18.7435 22.2927L19.8201 22.6434L21.6018 21.3406V20.185L20.2382 19.498C19.5555 19.7944 18.9608 20.2566 18.5048 20.8344Z" fill="white"/>
<path d="M18.4842 23.0807L17.5545 24.008C17.626 24.8537 17.9303 25.6327 18.4034 26.2797L19.5715 26.4702L20.2456 25.5337L19.5614 23.4296L18.4842 23.0807Z" fill="white"/>
<path d="M23.7852 26.9296L23.1202 26.0098H22.0123H20.9045L20.2395 26.9296L20.7423 27.9331C21.1433 28.0521 21.5674 28.1165 22.0065 28.1171C22.0088 28.1171 22.0097 28.1171 22.0119 28.1171C22.0141 28.1171 22.015 28.1171 22.0173 28.1171C22.4565 28.1166 22.8807 28.052 23.2815 27.9331L23.7843 26.9296H23.7852Z" fill="white"/>
<path d="M25.7039 22.5873L25.9105 21.4207C26.2417 22.0103 26.4439 22.6827 26.4791 23.399L25.7039 22.5873Z" fill="white"/>
<path d="M24.3124 26.9485L25.1458 26.8289C24.7904 27.1796 24.3771 27.4712 23.9213 27.6876L24.3124 26.9485Z" fill="white"/>
<path d="M25.5181 20.8344L25.2793 22.2927L24.2028 22.6434L22.4211 21.3406V20.185L23.7848 19.498C24.4675 19.7944 25.0621 20.2566 25.5181 20.8344Z" fill="white"/>
<path d="M25.539 23.0807L26.4688 24.008C26.3973 24.8537 26.093 25.6327 25.6199 26.2797L24.4517 26.4702L23.7776 25.5337L24.4619 23.4296L25.539 23.0807Z" fill="white"/>
</g>
<defs>
<clipPath id="clip0_448_316">
<rect width="44" height="50" fill="white"/>
</clipPath>
</defs>
</svg>
