<svg width="19" height="19" viewBox="0 0 19 19" fill="none" xmlns="http://www.w3.org/2000/svg">
<g clip-path="url(#clip0_407_486)">
<path fill-rule="evenodd" clip-rule="evenodd" d="M4.0625 9.49999C4.0625 8.89663 4.16209 8.31819 4.33983 7.77563L1.22867 5.38501C0.622323 6.62381 0.280701 8.01968 0.280701 9.49999C0.280701 10.979 0.621903 12.3741 1.22741 13.612L4.33689 11.2167C4.16083 10.6767 4.0625 10.1004 4.0625 9.49999Z" fill="#FBBC05"/>
<path fill-rule="evenodd" clip-rule="evenodd" d="M9.52512 4.01106C10.8277 4.01106 12.0043 4.4755 12.9287 5.2355L15.618 2.53328C13.9792 1.09773 11.8782 0.21106 9.52512 0.21106C5.87191 0.21106 2.73217 2.3133 1.2287 5.38497L4.33986 7.77559C5.05672 5.58595 7.10015 4.01106 9.52512 4.01106Z" fill="#FF383C"/>
<path fill-rule="evenodd" clip-rule="evenodd" d="M9.52512 14.9888C7.10015 14.9888 5.05672 13.4139 4.33986 11.2242L1.2287 13.6144C2.73217 16.6865 5.87191 18.7888 9.52512 18.7888C11.7799 18.7888 13.9326 17.9832 15.5483 16.4737L12.5951 14.1764C11.7618 14.7046 10.7126 14.9888 9.52512 14.9888Z" fill="#34A853"/>
<path fill-rule="evenodd" clip-rule="evenodd" d="M18.3493 9.49992C18.3493 8.95103 18.2652 8.35992 18.1392 7.81104H9.52509V11.3999H14.4834C14.2355 12.6235 13.5607 13.5642 12.5951 14.1765L15.5482 16.4738C17.2454 14.8887 18.3493 12.5277 18.3493 9.49992Z" fill="#4285F4"/>
</g>
<defs>
<clipPath id="clip0_407_486">
<rect width="18.8822" height="19" fill="white"/>
</clipPath>
</defs>
</svg>
