<svg width="54" height="47" viewBox="0 0 54 47" fill="none" xmlns="http://www.w3.org/2000/svg">
<g clip-path="url(#clip0_430_275)">
<path d="M26.8606 0.299078C26.9934 0.287825 27.0502 0.297413 27.1735 0.360112C28.6052 1.08804 30.032 1.85736 31.445 2.62082L37.8773 6.09594L42.441 8.58804C43.0382 8.92007 44.0317 9.43676 44.5791 9.80945C44.6128 10.2164 44.5987 10.717 44.5984 11.1345L44.5976 13.2747L44.5983 20.1494C46.3966 20.3297 48.2037 20.4379 50.004 20.6776C50.7419 20.776 51.4877 20.8005 52.2329 20.933C52.6778 21.3296 53.5464 22.3167 53.9952 22.7896C54.0114 23.2875 54.0069 23.8178 53.9997 24.318C53.9533 27.5321 54.0639 30.7802 53.9918 33.9907C53.413 34.5836 52.6198 35.2679 52.013 35.8373C51.5993 36.2258 50.0308 36.6654 49.4134 36.897C47.9006 37.4793 46.3947 38.0823 44.897 38.7056C38.9964 41.1551 33.1243 43.6767 27.2819 46.27C27.2242 46.2919 27.1703 46.3114 27.1082 46.3171C26.8694 46.3378 22.1087 44.1717 21.4868 43.9058C17.1149 41.9891 12.7273 40.1103 8.32465 38.2697C7.1615 37.7776 5.99199 37.3017 4.81639 36.842C4.16339 36.5935 3.45016 36.3462 2.80543 36.0848C2.5539 35.9828 2.01064 35.4778 1.77206 35.2883C1.25426 34.8771 0.714693 34.4412 0.219055 33.9995C0.187906 33.5362 0.203425 32.9511 0.203592 32.4787L0.203983 29.8929C0.20348 27.5501 0.180482 25.1655 0.210402 22.8257C0.402819 22.5976 1.89113 21.1093 2.09622 20.9566L6.91963 20.4048C7.71296 20.319 8.5365 20.2685 9.32341 20.153C9.35344 19.2433 9.33324 18.2446 9.33212 17.3297L9.33033 12.5403C9.33044 11.6907 9.29829 10.623 9.34635 9.79728C9.93248 9.43556 10.7208 9.03163 11.3388 8.69236L15.4396 6.45594C19.2348 4.38051 23.0418 2.32823 26.8606 0.299078ZM10.5019 10.5702L10.5146 17.6336C10.513 18.8593 10.5258 20.1302 10.4919 21.351C8.67532 21.4952 6.86191 21.6793 5.05302 21.9033C4.40315 21.9797 3.13198 22.0891 2.54602 22.2189C2.26547 22.5072 1.62023 23.1396 1.40057 23.4238L1.39934 33.3508C1.6943 33.6555 3.28867 34.9946 3.60077 35.0877C4.31517 35.3007 6.0846 35.0815 6.90271 35.023C8.71713 34.8815 10.5324 34.7515 12.3484 34.6332C14.0318 34.5235 15.7157 34.4235 17.4002 34.333C17.9479 34.3014 18.9976 34.2885 19.5024 34.2239C19.5028 34.6504 19.5103 35.1023 19.5007 35.5267C16.0197 35.5803 12.4758 35.9572 8.99557 36.1293C8.30595 36.1634 7.59702 36.224 6.90897 36.291C8.36289 36.9547 10.0213 37.5997 11.5056 38.2187L18.0287 41.0073L23.9959 43.6222C24.9741 44.0545 25.9553 44.5033 26.9394 44.9231C27.0801 44.9832 27.1328 44.9607 27.2742 44.9029C27.3033 44.8908 27.3321 44.8783 27.3608 44.8654C33.9989 41.8986 40.6822 39.0401 47.4083 36.2909C45.6546 36.0923 43.5052 36.0081 41.7206 35.8887C40.2168 35.7917 38.7124 35.706 37.2075 35.6313C36.5023 35.5967 35.6276 35.5302 34.931 35.5309C34.9233 35.1201 34.9027 34.664 34.9374 34.2583C35.9855 34.247 37.2804 34.3546 38.3433 34.412C40.5786 34.5312 42.8128 34.6709 45.0457 34.8312L48.5091 35.0812C51.2689 35.2675 50.8134 35.3135 52.828 33.3681L52.8285 23.406C52.5343 23.0642 51.9951 22.4503 51.6753 22.1509C49.8683 21.9468 48.0603 21.754 46.251 21.5725C45.6674 21.5182 45.0833 21.4696 44.4987 21.4267C44.1855 21.4024 43.7105 21.379 43.4091 21.3199C43.3642 19.0639 43.384 16.666 43.3848 14.4006L43.3857 11.9763C43.3857 11.5296 43.37 10.9992 43.3991 10.5613C42.9469 10.25 42.0901 9.811 41.5913 9.53667L37.9528 7.55029L30.7769 3.66074C30.2881 3.39938 27.1488 1.67552 26.8964 1.66943L15.4925 7.83393L12.2032 9.62985C11.6579 9.92888 11.0309 10.253 10.5019 10.5702Z" fill="#FEFEFE"/>
<path d="M23.4979 22.8562C23.7298 22.8492 23.9616 22.8435 24.1936 22.8391C24.9981 22.8268 25.2195 23.2332 25.7988 23.809C25.8353 25.9643 25.8108 28.2873 25.7967 30.4488C25.661 30.6384 25.445 30.8641 25.2844 31.0418C25.516 31.3601 25.7176 31.6396 25.9298 31.9735L24.2268 31.976C24.0414 31.9471 23.9059 31.6617 23.7625 31.4885C23.2661 31.4955 22.7696 31.4947 22.2732 31.486C22.0316 31.3069 21.4861 30.7813 21.325 30.5356C21.2812 30.0562 21.2957 29.5125 21.2952 29.0257L21.2936 26.8092L21.2934 25.1016C21.2934 24.7205 21.2773 24.2096 21.3371 23.8445C21.5782 23.5666 22.0253 23.1138 22.3051 22.8813C22.7025 22.8659 23.1002 22.8576 23.4979 22.8562ZM22.9507 29.7644C23.3366 29.7706 23.7375 29.7835 24.121 29.7451C24.2132 29.4767 24.1712 25.1623 24.1625 24.5989C23.7822 24.5765 23.3472 24.5818 22.9638 24.5939C22.9042 26.0246 22.9662 27.4835 22.9481 28.9173C22.9447 29.1889 22.9378 29.4942 22.9507 29.7644Z" fill="#FEFEFE"/>
<path d="M18.9863 22.962C19.0872 22.953 19.3619 22.9715 19.4759 22.976C19.7556 23.2019 20.1669 23.6128 20.4383 23.8696L20.4382 30.5501C20.2038 30.8603 19.717 31.3299 19.4211 31.5838L17.5749 31.6616C17.3821 31.6744 17.1925 31.6766 16.9996 31.6805C16.7433 31.5311 16.1974 30.9934 16.0012 30.7619C15.968 29.9683 15.9893 29.0234 15.9892 28.2186L15.9949 24.1059C16.1994 23.7801 16.6759 23.3114 16.967 23.0646C17.2996 23.0031 18.5636 22.9796 18.9863 22.962ZM17.6024 24.7433C17.6 26.4637 17.585 28.2114 17.6019 29.9298C17.7942 29.9278 17.9925 29.9309 18.1832 29.9103L18.8099 29.866C18.8792 28.433 18.7943 26.9458 18.826 25.5077C18.8315 25.2576 18.8277 24.9524 18.811 24.7037C18.6159 24.7054 18.4195 24.7022 18.2257 24.7229C18.0181 24.7342 17.8103 24.741 17.6024 24.7433Z" fill="#FEFEFE"/>
<path d="M17.3508 9.6666C18.2362 9.53075 18.8645 10.2435 19.0113 11.0891C20.1762 11.0924 20.5161 12.1334 19.9558 13.0883C19.3529 12.3754 18.5176 12.0099 17.6286 12.5475C17.1167 12.857 16.9832 13.3227 16.8701 13.8881C17.1623 13.4701 17.3609 13.1446 17.8897 12.9598C18.2383 12.8363 18.6208 12.8637 18.9494 13.0356C19.3661 13.2567 19.5683 13.629 19.7032 14.0671C20.1738 13.762 20.6533 13.6083 21.1906 13.8673C21.5157 14.024 21.7619 14.314 21.869 14.6666C22.0108 15.12 21.9064 15.4578 21.7142 15.8588L21.3433 15.6276C20.3717 15.1869 19.5341 15.387 18.8107 16.1647C18.0547 15.478 17.2592 15.4701 16.5268 16.1889C15.6042 15.3819 14.7566 15.3428 13.8441 16.196C13.7219 16.0842 13.624 15.9913 13.5398 15.8446C13.3837 15.5746 13.341 15.2509 13.4214 14.9477C13.5369 14.5117 13.8009 14.3362 14.1455 14.1262C13.9985 13.7324 13.9008 13.3839 14.0078 12.9515C14.0961 12.5878 14.327 12.2781 14.6457 12.0961C15.1151 11.8256 15.5485 11.8836 16.0358 12.0168C15.7683 10.8615 16.0639 9.84511 17.3508 9.6666Z" fill="#FEFEFE"/>
<path d="M38.7627 23.1573C39.1391 23.1464 39.6956 23.1915 40.0756 23.2153C40.6853 23.2535 41.3618 23.2906 41.9641 23.3777C42.2563 23.6771 42.5798 24.0497 42.8471 24.3704C42.8894 25.2644 42.8716 26.9851 42.8313 27.8751C42.5952 28.1112 42.3627 28.351 42.1338 28.5945C42.4421 29.493 42.8816 31.0592 43.1073 31.9786C42.6774 31.9753 41.9022 31.9095 41.481 31.8608C41.4218 31.6881 41.3586 31.4329 41.3084 31.2504C41.1878 30.8037 40.7033 28.7539 40.4377 28.5397L40.3794 28.555C40.2447 28.7906 40.2988 31.3125 40.2931 31.7909C39.9645 31.8103 39.0907 31.7446 38.7647 31.6864C38.7297 30.6412 38.7571 29.4371 38.7569 28.3822L38.7627 23.1573ZM40.3014 26.9105C40.5453 26.9317 41.1149 26.9953 41.3399 26.9435C41.3404 26.3146 41.3503 25.6564 41.3299 25.03C41.049 24.9796 40.5887 24.9442 40.3013 24.9498L40.3014 26.9105Z" fill="#FEFEFE"/>
<path d="M36.622 9.88081C36.8594 9.85136 37.2959 9.93593 37.4991 10.0628C38.533 10.7081 38.5094 11.766 37.997 12.702C39.2677 12.5542 40.091 13.2382 39.7287 14.5957C40.4466 15.038 40.5124 15.8983 39.7772 16.3553C38.9947 15.2853 37.9288 15.2879 37.0068 16.1489C36.279 15.4357 35.506 15.4878 34.7673 16.1547C33.9379 15.2417 32.9885 15.1449 31.9576 15.7944L31.6927 16.0196C31.1586 15.3963 31.2773 14.8009 32.0309 14.4981C32.0827 14.1035 32.1611 13.8087 32.4985 13.5505C32.7438 13.366 33.0507 13.2901 33.3508 13.3397C33.8096 13.4111 34.0319 13.6473 34.2924 13.9954C34.8562 13.079 35.775 12.8268 36.5914 13.6357C36.7126 13.7558 36.8346 14.035 36.9341 14.194C36.8481 12.5843 35.4841 12.1599 34.2874 13.0488C34.0943 12.925 33.9793 12.8459 33.7995 12.7022C33.4506 11.6216 34.09 10.6871 35.2325 11.0123C35.5217 10.3147 35.8566 9.96154 36.622 9.88081Z" fill="#FEFEFE"/>
<path d="M44.5934 23.6069C45.1234 23.6034 45.8181 23.6901 46.3528 23.7471C46.8024 23.795 47.2645 24.4291 47.5245 24.8177C47.5555 25.1287 47.5423 25.6619 47.5425 25.9922L47.5435 28.0616L47.5443 30.087C47.5442 30.4501 47.5623 31.0578 47.5 31.3965C47.2355 31.6836 46.9627 31.9624 46.6819 32.2326C46.2873 32.2486 45.0218 32.1299 44.603 32.0762C44.3735 31.8784 43.9172 31.3123 43.734 31.0542C43.6798 30.5282 43.7051 28.9174 43.7149 28.3161C43.7338 27.1541 43.6578 25.6254 43.7322 24.5012C43.9213 24.2522 44.3574 23.8236 44.5934 23.6069ZM45.1626 30.3847C45.4424 30.4331 45.8349 30.4718 46.1187 30.4718C46.1648 30.0439 46.1442 28.9125 46.1386 28.4358C46.1273 27.4713 46.1619 26.4077 46.1332 25.4529C45.7935 25.3865 45.4662 25.3868 45.1805 25.3286C45.1329 25.6706 45.147 26.8844 45.1538 27.2797C45.171 28.2829 45.1272 29.3923 45.1626 30.3847Z" fill="#FEFEFE"/>
<path d="M26.6992 22.8413C27.2409 22.8405 27.7826 22.8446 28.3243 22.8536L28.3319 29.7168C28.7252 29.74 29.1548 29.7341 29.5479 29.7193C29.5869 29.17 29.5553 28.0639 29.555 27.4899L29.559 22.8432C30.096 22.8496 30.633 22.859 31.1699 22.8715L31.1707 24.5801L31.1686 30.4983C30.971 30.734 30.4262 31.2485 30.1883 31.4494C29.7598 31.4766 27.9646 31.4606 27.6087 31.4097C27.3159 31.1413 26.9522 30.7895 26.6994 30.4816C26.6428 28.5134 26.7246 26.5186 26.6854 24.5475C26.6744 23.9943 26.6616 23.389 26.6992 22.8413Z" fill="#FEFEFE"/>
<path d="M13.6991 23.2064C13.8236 23.1882 14.0233 23.1953 14.1549 23.1956C14.3591 23.3278 14.9499 23.8962 15.1388 24.0842C15.1849 24.4272 15.1686 25.2202 15.1666 25.6015C15.1628 26.2945 15.1883 27.0947 15.1409 27.7784C14.89 28.088 14.495 28.4881 14.2073 28.7657C13.7202 28.8676 12.9789 28.8554 12.4387 28.9286L12.442 30.8689C12.4422 31.1751 12.449 31.5179 12.4298 31.8246C12.4229 31.9337 12.4059 31.92 12.3304 31.972C11.8538 31.9833 11.3161 32.0308 10.837 32.0627C10.7602 29.887 10.8613 27.6629 10.8179 25.4823C10.8043 24.8063 10.8099 24.0857 10.8354 23.4106C11.7974 23.3395 12.7312 23.2633 13.6991 23.2064ZM12.4393 25.024L12.437 27.1968C12.6415 27.1896 12.8521 27.1848 13.0558 27.1737C13.2368 27.1584 13.4041 27.1376 13.5835 27.1142C13.5974 26.5155 13.6177 25.544 13.5771 24.9537C13.4306 24.9527 13.1948 24.9433 13.0572 24.9638L12.4393 25.024Z" fill="#FEFEFE"/>
<path d="M6.38865 23.8418C6.62103 23.8918 7.23334 24.4967 7.45277 24.6985C7.46656 25.9337 7.45433 27.1918 7.45405 28.4287C7.14274 28.7789 6.82807 29.1258 6.51017 29.4697C5.96351 29.5657 5.29343 29.6297 4.73756 29.6737L4.73684 32.6515C4.52617 32.6879 4.34201 32.7082 4.13 32.7304C3.79586 32.7752 3.46874 32.8249 3.13164 32.8373L3.13019 24.229C4.21374 24.0777 5.30013 23.9486 6.38865 23.8418ZM4.7274 25.7348C4.7547 26.4552 4.73154 27.2282 4.74248 27.9575L5.12401 27.923C5.34473 27.8954 5.64416 27.8664 5.85494 27.8205C5.91473 27.3244 5.87878 26.1934 5.87258 25.6447C5.75128 25.65 5.54709 25.6519 5.43327 25.6666C5.20524 25.6914 4.95437 25.7241 4.7274 25.7348Z" fill="#FEFEFE"/>
<path d="M28.8443 33.2275C29.777 33.2258 30.7098 33.2328 31.6424 33.2487C31.9148 33.4353 32.4631 33.9992 32.6979 34.2496C32.7226 34.7552 32.7178 35.451 32.688 35.9533C32.1307 35.961 31.5595 35.9541 31.0011 35.954C30.9989 35.7001 31.0601 35.1811 30.8746 34.9943C30.7263 34.845 29.632 34.9397 29.3641 34.941C29.3328 35.2807 29.3324 35.6588 29.3381 36.0019C29.357 37.125 29.3059 38.2722 29.355 39.3928C29.6983 39.3995 30.606 39.4414 30.9093 39.366C31.1447 39.0815 30.8056 38.4885 31.1272 38.416L32.6937 38.4198C32.723 38.9659 32.7084 39.5595 32.6979 40.1058C32.3599 40.4482 32.017 40.7854 31.6693 41.1173C30.8859 41.1578 29.4888 41.1307 28.6903 41.1071C28.4618 40.9423 27.8043 40.3151 27.6306 40.0866C27.578 39.5844 27.603 38.3404 27.6094 37.7746C27.6219 36.6514 27.5769 35.3846 27.6231 34.2787C27.8223 33.9829 28.5098 33.2498 28.8443 33.2275Z" fill="#FEFEFE"/>
<path d="M32.104 22.905C33.3054 22.9066 34.4959 22.9671 35.6986 22.991C35.7183 23.5611 35.7077 24.1679 35.7015 24.7386C35.0482 24.6872 34.3549 24.6772 33.7005 24.6701L33.6978 26.3841C34.1586 26.4362 34.8217 26.4323 35.3 26.4424C35.3072 26.9994 35.3046 27.5564 35.292 28.1131C34.8071 28.0863 34.1511 28.1058 33.699 28.0361L33.6971 29.8167C34.2195 29.8802 35.1421 29.8791 35.6961 29.8894C35.7195 30.3594 35.7216 31.1302 35.6999 31.591C34.5068 31.5603 33.3183 31.5068 32.124 31.4877C32.0763 31.1568 32.0895 30.5569 32.0896 30.2051L32.0908 28.1421L32.09 24.8212C32.09 24.2175 32.0723 23.4946 32.104 22.905Z" fill="#FEFEFE"/>
<path d="M22.0663 33.2207C23.4926 33.1698 25.112 33.2212 26.5582 33.214C26.5649 33.7703 26.5594 34.3369 26.5594 34.8941C25.6357 34.8897 24.712 34.8904 23.7883 34.8963L23.788 36.4743L26.0466 36.4854C26.0553 36.8533 26.0907 37.7923 26.0313 38.1312L23.7878 38.1314L23.7867 40.9848C23.3688 41.0278 22.4941 41.0112 22.054 40.9954C22.0287 40.4184 22.0453 39.712 22.0451 39.1264L22.0444 35.7975L22.0436 34.1304C22.0433 33.899 22.0287 33.4159 22.0663 33.2207Z" fill="#FEFEFE"/>
<path d="M49.0115 24.0656C49.3514 24.0763 50.3992 24.2414 50.7525 24.2964C51.7344 25.308 51.5123 25.7763 51.5067 27.0755C51.1159 26.9968 50.6442 26.948 50.2412 26.8856C50.2367 26.5522 50.2339 26.2188 50.2328 25.8855C50.0051 25.8363 49.7623 25.8216 49.5295 25.8006L49.5256 26.9023C50.0447 27.4999 50.7358 28.031 51.2633 28.6314C51.5413 28.9481 51.5279 29.2147 51.5145 29.6162C51.4894 30.3769 51.5413 31.1486 51.4866 31.9054C51.2611 32.182 50.8977 32.7428 50.5426 32.7309C50.0386 32.6213 49.4893 32.6055 48.978 32.4949C48.7502 32.2668 48.4147 31.7911 48.2199 31.5175C48.1758 30.9748 48.197 30.1417 48.2115 29.5812C48.6414 29.6271 49.093 29.6967 49.5233 29.7568L49.5261 30.8748C49.7533 30.9163 49.995 30.9398 50.2256 30.9665C50.2485 30.5646 50.2362 30.1059 50.2351 29.6995C49.7377 29.1099 48.5632 28.1525 48.216 27.5695C48.1652 26.9012 48.2021 25.6467 48.2048 24.9389C48.4577 24.6324 48.7268 24.3408 49.0115 24.0656Z" fill="#FEFEFE"/>
<path d="M26.7801 5.69873C27.5288 5.69902 28.0641 5.79209 28.7821 6.01934C28.9948 6.61934 29.402 7.23462 29.6434 7.94216C29.0885 8.4442 28.725 8.81276 28.2107 9.36137C27.8413 9.28524 27.5172 9.24488 27.1431 9.21416C26.6389 9.15106 25.912 9.24706 25.3992 9.31498C25.2106 9.08118 25.0169 8.79542 24.8262 8.55243C24.637 8.31123 24.3704 8.00124 24.2161 7.74574C24.4299 7.2949 25.1627 6.31957 25.4691 5.90032C25.9838 5.76654 26.2485 5.73284 26.7801 5.69873Z" fill="#FEFEFE"/>
<path d="M23.735 8.07636C23.7548 8.07469 23.8591 8.08457 23.8644 8.08991C24.1447 8.37096 24.8224 9.31689 25.0182 9.5798C24.5417 10.5916 24.4115 11.2186 24.1398 12.2548C23.3244 12.5993 22.8901 12.849 22.1224 13.2968C21.6997 12.9253 21.3103 12.6657 20.9052 12.2362C20.6816 11.0688 21.0083 9.99797 21.5709 8.97217C22.302 8.56985 22.9353 8.29919 23.735 8.07636Z" fill="#FEFEFE"/>
<path d="M29.909 8.25778C30.4055 8.42337 31.6531 9.11604 32.0713 9.43516L32.3474 9.21284C32.4452 9.39422 32.7857 10.1529 32.7063 10.3445L32.5916 10.3703C32.5759 10.3848 32.5601 10.3993 32.5444 10.4138C32.5491 10.9783 32.5347 11.8315 32.491 12.3519C32.1531 12.6349 31.7908 12.8803 31.431 13.1328L31.177 13.2992C30.6402 12.9273 29.8387 12.5412 29.2507 12.2714C29.2008 12.0983 29.1668 11.8983 29.1319 11.7202C28.9956 11.023 28.792 10.363 28.5743 9.6886C28.7924 9.35598 29.5988 8.57173 29.909 8.25778Z" fill="#FEFEFE"/>
<path d="M9.55834 23.5228C9.62616 23.5084 9.86279 23.5081 9.94496 23.5059C9.93206 23.9991 9.92927 24.4818 9.93491 24.975C9.96209 27.3594 9.89014 29.762 9.93658 32.1446C9.52658 32.18 9.11612 32.2102 8.70539 32.2352L8.33071 32.2489C8.28952 31.8734 8.30336 31.3053 8.30353 30.9154L8.30403 28.7447L8.30381 25.5738C8.30403 24.9594 8.28969 24.2368 8.32541 23.6322C8.73134 23.6048 9.15168 23.5604 9.55834 23.5228Z" fill="#FEFEFE"/>
<path d="M26.4013 16.2359C28.4144 16.0419 28.1414 17.6746 28.0903 19.0598L28.0124 21.4342L27.1196 21.4357L25.5172 21.4358C25.4622 20.5206 25.417 19.6047 25.3819 18.6884C25.3445 17.6008 25.1623 16.6786 26.4013 16.2359Z" fill="#FEFEFE"/>
<path d="M36.4201 23.0418C36.667 23.048 37.7926 23.0428 37.9153 23.1599C37.9615 23.4204 37.9342 23.7865 37.9344 24.0669L37.9385 25.6236C37.9421 27.5709 37.9747 29.6746 37.9275 31.6067L37.8664 31.6655C37.4789 31.6634 36.7957 31.6453 36.4298 31.5839C36.4066 31.1769 36.4079 30.7305 36.4122 30.3215C36.4378 27.9017 36.3702 25.4595 36.4201 23.0418Z" fill="#FEFEFE"/>
<path d="M20.2722 16.2404C21.5371 16.2077 21.7741 17.2264 21.8468 18.2695C21.9209 19.3338 22.1302 20.4131 22.1587 21.4856C21.8043 21.5099 21.307 21.5027 20.9416 21.508C20.535 21.5279 20.1282 21.5418 19.7212 21.5496L19.3287 18.975C19.1605 17.882 18.7239 16.4632 20.2722 16.2404Z" fill="#FEFEFE"/>
<path d="M32.9455 16.2378C33.7155 16.1392 34.347 16.5569 34.3828 17.383C34.4043 17.8789 34.2842 18.4974 34.2119 18.9932C34.0918 19.8305 33.9666 20.6671 33.8365 21.5028C33.5725 21.5204 33.1437 21.5028 32.8677 21.5006C32.5534 21.4945 31.6894 21.5026 31.4198 21.4132C31.3266 21.1597 31.7688 17.9276 31.7989 17.4607C31.8338 16.9201 32.3759 16.3588 32.9455 16.2378Z" fill="#FEFEFE"/>
<path d="M26.2436 4.75401C28.4571 4.4644 30.8522 5.53688 32.2572 7.28802C33.0814 8.31537 33.482 9.27135 33.7795 10.5506C33.6196 10.6814 33.4646 10.8616 33.322 11.0157C32.7141 7.80947 30.6038 5.73514 27.4524 5.33879C26.0667 5.21098 24.5668 5.61083 23.4071 6.38595C21.627 7.5759 20.9423 8.98231 20.4899 11.019C20.2927 10.82 20.2327 10.7639 20.0027 10.6093C20.338 9.26595 20.6547 8.39299 21.5407 7.28015C22.6567 5.87862 24.4903 4.91776 26.2436 4.75401Z" fill="#FEFEFE"/>
<path d="M15.0817 16.4103C16.0461 16.4241 16.2709 17.2051 16.4153 18.0148C16.6314 19.2261 16.9047 20.4307 17.1058 21.6452C16.847 21.6849 16.4942 21.6947 16.2261 21.71C15.8684 21.7107 15.4473 21.7512 15.0676 21.7576C14.9671 21.3763 14.7295 20.4876 14.6958 20.1339C14.5882 19.0055 13.3991 16.7735 15.0817 16.4103Z" fill="#FEFEFE"/>
<path d="M38.2437 16.3775C39.0007 16.3647 39.3876 16.9637 39.2866 17.7011C39.1623 18.6081 38.8875 19.4978 38.729 20.401C38.6716 20.7285 38.5823 21.3518 38.442 21.6332C38.3081 21.7464 37.7984 21.6726 37.6042 21.6565C37.1992 21.65 36.8672 21.6451 36.4631 21.6026C36.4841 21.1975 36.6795 20.3321 36.7549 19.8816C36.9063 19.0885 37.0252 18.2856 37.1958 17.4968C37.3271 16.8894 37.6501 16.5055 38.2437 16.3775Z" fill="#FEFEFE"/>
<path d="M24.2355 12.6743C24.4239 12.7184 24.992 13.2038 25.1839 13.3536C25.6113 13.6915 26.0543 14.008 26.5113 14.3022C26.5025 14.6567 26.4956 15.0112 26.4909 15.3658C25.7744 15.508 25.5212 15.6953 25.0284 16.2167C24.9032 16.1885 24.91 16.1623 24.7982 16.0611C24.3819 15.642 23.8962 15.5701 23.3525 15.5436C23.078 15.1037 22.9957 14.9571 22.5779 14.6487C22.4442 14.3344 22.2904 14.0379 22.3882 13.6975C22.5286 13.5138 23.9488 12.8167 24.2355 12.6743Z" fill="#FEFEFE"/>
<path d="M29.0561 12.6769C29.5771 12.8884 30.4588 13.4018 30.981 13.6878L30.9788 14.2525C30.4353 14.6115 30.2597 14.869 30.0097 15.4751C29.4517 15.6048 29.1676 15.6576 28.7193 16.0508C28.5903 16.1828 28.5349 16.2842 28.3858 16.1231C27.9278 15.6281 27.5754 15.4755 26.9411 15.3548C26.8993 15.0016 26.8933 14.6565 26.8819 14.3015C27.6413 13.7223 28.2692 13.3071 29.0561 12.6769Z" fill="#FEFEFE"/>
<path d="M19.0671 37.0934L19.5038 37.0745C19.5062 37.5616 19.5051 38.0487 19.5002 38.5357C18.9226 38.4953 17.9344 38.3007 17.3367 38.2116C16.6278 38.106 15.5743 37.9985 14.9264 37.7935C14.4638 37.6506 14.0031 37.5009 13.5447 37.3442C15.0148 37.2848 16.4867 37.1712 17.9583 37.1281C18.3289 37.1173 18.6969 37.1172 19.0671 37.0934Z" fill="#FEFEFE"/>
<path d="M34.9304 37.1137C36.14 37.0973 37.444 37.2461 38.6633 37.266C39.2649 37.2758 39.9925 37.3165 40.582 37.389L39.7171 37.6789C38.7968 37.9948 37.7968 38.0917 36.833 38.2488C36.2902 38.3372 35.4492 38.4951 34.9314 38.5298C34.9101 38.1368 34.8971 37.4993 34.9304 37.1137Z" fill="#FEFEFE"/>
</g>
<defs>
<clipPath id="clip0_430_275">
<rect width="54" height="47" fill="white"/>
</clipPath>
</defs>
</svg>
