<svg width="132" height="114" viewBox="0 0 132 114" fill="none" xmlns="http://www.w3.org/2000/svg">
<g clip-path="url(#clip0_436_254)">
<path d="M65.6575 0.406045C65.9838 0.378224 66.1233 0.401929 66.4265 0.556934C69.9442 2.35652 73.4502 4.25845 76.922 6.14591L92.7272 14.7372L103.941 20.8982C105.408 21.7191 107.849 22.9964 109.194 23.9178C109.277 24.9239 109.243 26.1615 109.242 27.1936L109.24 32.4847L109.242 49.4805C113.66 49.9262 118.101 50.1937 122.524 50.7863C124.337 51.0294 126.17 51.0902 128.001 51.4177C129.094 52.3981 131.228 54.8384 132.331 56.0076C132.371 57.2384 132.36 58.5494 132.342 59.7862C132.228 67.7321 132.5 75.7622 132.323 83.6993C130.901 85.165 128.951 86.8568 127.461 88.2644C126.444 89.2249 122.59 90.3117 121.073 90.8841C117.356 92.3239 113.656 93.8145 109.976 95.3554C95.4769 101.411 81.0482 107.645 66.6928 114.056C66.5509 114.11 66.4185 114.159 66.266 114.173C65.6792 114.224 53.9814 108.869 52.4534 108.211C41.711 103.473 30.9301 98.8283 20.1121 94.2779C17.2541 93.0613 14.3804 91.8847 11.4918 90.7483C9.88728 90.1339 8.13477 89.5224 6.55056 88.8763C5.93251 88.6242 4.59766 87.3756 4.01143 86.9072C2.73913 85.8906 1.41333 84.813 0.195473 83.721C0.118937 82.5755 0.157069 81.129 0.157481 79.9613L0.158439 73.5686C0.157205 67.7766 0.100695 61.8815 0.174213 56.0968C0.647008 55.533 4.304 51.8536 4.80793 51.4761L16.6597 50.1119C18.6091 49.8997 20.6326 49.7748 22.5662 49.4893C22.64 47.2405 22.5903 44.7715 22.5876 42.5096L22.5832 30.669C22.5835 28.5687 22.5044 25.9292 22.6225 23.8877C24.0627 22.9934 25.9997 21.9949 27.5184 21.1561L37.5945 15.6272C46.9198 10.4963 56.2743 5.42255 65.6575 0.406045ZM25.4619 25.7986L25.4931 43.2609C25.4891 46.291 25.5206 49.433 25.4374 52.451C20.9737 52.8074 16.5179 53.2628 12.0732 53.8165C10.4764 54.0053 7.35295 54.2759 5.91317 54.5967C5.2238 55.3095 3.63835 56.8729 3.09862 57.5754L3.09561 82.1171C3.82037 82.8704 7.73796 86.181 8.50483 86.4111C10.2602 86.9377 14.6079 86.3958 16.6182 86.2513C21.0765 85.9014 25.5368 85.5802 29.9989 85.2876C34.1353 85.0165 38.273 84.7691 42.412 84.5455C43.7577 84.4673 46.337 84.4354 47.5775 84.2757C47.5783 85.3301 47.5967 86.4473 47.5731 87.4964C39.02 87.629 30.3121 88.5609 21.7606 88.9863C20.0661 89.0706 18.3242 89.2204 16.6335 89.386C20.206 91.0269 24.281 92.6214 27.9281 94.1519L43.9563 101.046L58.6187 107.51C61.0222 108.579 63.4332 109.689 65.8511 110.727C66.197 110.875 66.3265 110.82 66.6739 110.677C66.7452 110.647 66.8161 110.616 66.8866 110.584C83.1973 103.249 99.6192 96.1824 116.146 89.3857C111.837 88.8948 106.556 88.6867 102.171 88.3914C98.4756 88.1518 94.7792 87.9397 91.0813 87.7552C89.3485 87.6696 87.1992 87.5051 85.4877 87.507C85.4687 86.4913 85.418 85.3639 85.5034 84.3609C88.0788 84.3329 91.2604 84.5988 93.8722 84.7407C99.3647 85.0354 104.854 85.3809 110.341 85.7772L118.851 86.3952C125.632 86.8557 124.513 86.9695 129.463 82.1601L129.464 57.5316C128.742 56.6864 127.417 55.1689 126.631 54.4286C122.191 53.924 117.748 53.4473 113.303 52.9988C111.869 52.8645 110.433 52.7443 108.997 52.6381C108.227 52.5781 107.06 52.5203 106.319 52.3742C106.209 46.7968 106.258 40.8687 106.26 35.2682L106.262 29.2748C106.262 28.1704 106.223 26.8591 106.295 25.7766C105.184 25.0069 103.078 23.9216 101.853 23.2434L92.9127 18.3327L75.2805 8.71683C74.0794 8.07069 66.3658 3.80891 65.7454 3.79387L37.7245 19.0339L29.6422 23.4738C28.3024 24.213 26.7618 25.0143 25.4619 25.7986Z" fill="#F7DD43"/>
<path d="M57.3948 56.1723C57.9646 56.155 58.5343 56.1409 59.1042 56.13C61.0811 56.0996 61.625 57.1043 63.0484 58.5277C63.1381 63.8561 63.0781 69.5991 63.0432 74.9428C62.7099 75.4115 62.1792 75.9695 61.7845 76.4088C62.3536 77.1957 62.8489 77.8869 63.3705 78.7122L59.1858 78.7185C58.7303 78.6469 58.3974 77.9415 58.0449 77.5131C56.8252 77.5306 55.6053 77.5286 54.3856 77.507C53.792 77.0643 52.4515 75.7648 52.0558 75.1575C51.9481 73.9722 51.9836 72.6281 51.9826 71.4247L51.9786 65.9448L51.978 61.7234C51.9782 60.7813 51.9385 59.5181 52.0856 58.6156C52.678 57.9286 53.7765 56.8092 54.4639 56.2343C55.4405 56.1963 56.4175 56.1757 57.3948 56.1723ZM56.0503 73.2508C56.9985 73.2661 57.9835 73.2982 58.9258 73.2031C59.1524 72.5396 59.0492 61.8736 59.0278 60.4805C58.0935 60.4251 57.0245 60.4383 56.0824 60.4682C55.9359 64.0052 56.0883 67.612 56.044 71.1567C56.0357 71.8282 56.0187 72.5828 56.0503 73.2508Z" fill="#F7DD43"/>
<path d="M46.309 56.4339C46.557 56.4115 47.2321 56.4573 47.5121 56.4685C48.1994 57.0269 49.2101 58.0428 49.8769 58.6776L49.8767 75.1932C49.3006 75.9602 48.1045 77.1212 47.3775 77.7489L42.8412 77.9411C42.3674 77.9727 41.9016 77.9783 41.4275 77.9878C40.7978 77.6184 39.4565 76.2893 38.9742 75.7169C38.8927 73.755 38.945 71.4188 38.9448 69.4293L38.9588 59.2617C39.4613 58.4563 40.6321 57.2975 41.3474 56.6874C42.1646 56.5355 45.2706 56.4773 46.309 56.4339ZM42.9087 60.8376C42.9029 65.0909 42.8659 69.4116 42.9074 73.6599C43.3799 73.6548 43.8673 73.6624 44.3357 73.6116L45.8757 73.502C46.0461 69.9593 45.8373 66.2827 45.9152 62.7273C45.9288 62.109 45.9195 61.3544 45.8785 60.7397C45.399 60.7439 44.9164 60.736 44.4403 60.7872C43.9302 60.815 43.4195 60.8318 42.9087 60.8376Z" fill="#F7DD43"/>
<path d="M42.2906 23.5647C44.4661 23.2288 46.0099 24.9908 46.3707 27.0814C49.2329 27.0896 50.068 29.6632 48.6915 32.0239C47.21 30.2615 45.1575 29.3579 42.9731 30.6868C41.7154 31.452 41.3874 32.6033 41.1095 34.0011C41.8274 32.9679 42.3153 32.163 43.6146 31.7061C44.4713 31.4009 45.411 31.4685 46.2186 31.8935C47.2425 32.4402 47.7393 33.3605 48.0707 34.4437C49.227 33.6894 50.4053 33.3095 51.7254 33.9497C52.5243 34.3372 53.1292 35.0542 53.3924 35.9257C53.7409 37.0467 53.4843 37.8819 53.0121 38.8731L52.1008 38.3015C49.7132 37.2122 47.6551 37.7067 45.8776 39.6295C44.0202 37.9318 42.0654 37.9121 40.2658 39.6893C37.9988 37.6942 35.9162 37.5974 33.674 39.7069C33.3738 39.4304 33.1333 39.2007 32.9265 38.8382C32.5428 38.1706 32.4378 37.3703 32.6354 36.6208C32.9192 35.5429 33.568 35.109 34.4145 34.5899C34.0535 33.6161 33.8135 32.7547 34.0763 31.6857C34.2933 30.7864 34.8607 30.0208 35.6436 29.5708C36.7972 28.9022 37.8621 29.0456 39.0594 29.3748C38.4021 26.5188 39.1284 24.006 42.2906 23.5647Z" fill="#F7DD43"/>
<path d="M94.9026 56.9166C95.8276 56.8898 97.1948 57.0011 98.1286 57.06C99.6268 57.1545 101.289 57.2462 102.769 57.4614C103.487 58.2018 104.282 59.1228 104.939 59.9158C105.042 62.1258 104.999 66.3797 104.9 68.58C104.32 69.1637 103.748 69.7566 103.186 70.3586C103.944 72.5799 105.023 76.4519 105.578 78.7248C104.522 78.7168 102.617 78.554 101.582 78.4336C101.436 78.0067 101.281 77.3759 101.158 76.9246C100.862 75.8203 99.671 70.7527 99.0184 70.2231L98.875 70.261C98.5441 70.8434 98.6771 77.0782 98.663 78.2609C97.8557 78.3089 95.7087 78.1463 94.9075 78.0024C94.8215 75.4184 94.889 72.4418 94.8885 69.8337L94.9026 56.9166ZM98.6834 66.1953C99.2828 66.2477 100.682 66.4051 101.235 66.277C101.237 64.7221 101.261 63.095 101.211 61.5465C100.52 61.4217 99.3894 61.3343 98.6832 61.3482L98.6834 66.1953Z" fill="#F7DD43"/>
<path d="M89.6427 24.0942C90.2261 24.0214 91.2986 24.2305 91.7978 24.5441C94.3383 26.1394 94.2803 28.7549 93.0212 31.0687C96.1436 30.7034 98.1665 32.3945 97.2763 35.7505C99.0403 36.8439 99.2019 38.9707 97.3955 40.1006C95.4726 37.4554 92.8535 37.4617 90.5881 39.5904C88.7999 37.8272 86.9005 37.9559 85.0854 39.6048C83.0475 37.3474 80.7145 37.1082 78.1816 38.7139L77.5306 39.2708C76.2182 37.7297 76.51 36.2578 78.3617 35.5091C78.4889 34.5338 78.6817 33.8049 79.5107 33.1665C80.1135 32.7105 80.8675 32.5228 81.6048 32.6455C82.7323 32.8219 83.2783 33.4059 83.9185 34.2663C85.3038 32.0007 87.5615 31.3775 89.5676 33.3772C89.8654 33.674 90.1651 34.3644 90.4096 34.7573C90.1981 30.7779 86.8467 29.7286 83.9061 31.9261C83.4318 31.6202 83.1493 31.4246 82.7073 31.0694C81.8501 28.3979 83.4211 26.0876 86.2284 26.8916C86.939 25.1669 87.762 24.2938 89.6427 24.0942Z" fill="#F7DD43"/>
<path d="M109.229 58.0283C110.532 58.0196 112.239 58.2339 113.553 58.3748C114.657 58.4931 115.793 60.0608 116.432 61.0215C116.508 61.7905 116.475 63.1085 116.476 63.9251L116.478 69.0411L116.48 74.0486C116.48 74.9461 116.524 76.4484 116.371 77.2859C115.721 77.9955 115.051 78.6848 114.361 79.3528C113.391 79.3924 110.282 79.0988 109.253 78.9661C108.689 78.4773 107.568 77.0777 107.118 76.4396C106.985 75.1393 107.047 71.1568 107.071 69.6704C107.117 66.7977 106.931 63.0184 107.113 60.2392C107.578 59.6235 108.65 58.5638 109.229 58.0283ZM110.628 74.7844C111.316 74.9041 112.28 74.9999 112.977 74.9999C113.091 73.942 113.04 71.1448 113.026 69.9663C112.999 67.5818 113.083 64.9524 113.013 62.592C112.178 62.4279 111.374 62.4285 110.672 62.2847C110.555 63.1302 110.59 66.1308 110.606 67.1081C110.649 69.5882 110.541 72.3309 110.628 74.7844Z" fill="#F7DD43"/>
<path d="M65.2608 56.1356C66.592 56.1336 67.923 56.1437 69.2539 56.1658L69.2727 73.1333C70.239 73.1905 71.2947 73.176 72.2604 73.1394C72.3563 71.7814 72.2787 69.0469 72.278 67.6279L72.2877 56.1402C73.6072 56.1559 74.9267 56.1791 76.2459 56.2101L76.248 60.4341L76.2429 75.0653C75.7572 75.6479 74.4187 76.9198 73.834 77.4166C72.7811 77.4838 68.3701 77.4443 67.4956 77.3184C66.7761 76.6548 65.8826 75.7851 65.2613 75.0239C65.1222 70.1582 65.3232 65.2266 65.227 60.3536C65.1999 58.9858 65.1684 57.4896 65.2608 56.1356Z" fill="#F7DD43"/>
<path d="M33.3178 57.0382C33.6237 56.993 34.1145 57.0105 34.4376 57.0113C34.9395 57.3381 36.3912 58.7434 36.8553 59.2082C36.9685 60.0562 36.9286 62.0165 36.9235 62.9593C36.9143 64.6724 36.9769 66.6507 36.8606 68.3412C36.2439 69.1064 35.2733 70.0956 34.5665 70.7818C33.3695 71.0337 31.5482 71.0035 30.2209 71.1846L30.2288 75.9815C30.2294 76.7384 30.246 77.5858 30.1988 78.3441C30.1819 78.6139 30.1402 78.58 29.9546 78.7085C28.7837 78.7364 27.4623 78.854 26.2852 78.9327C26.0964 73.554 26.3448 68.0554 26.2381 62.6646C26.2049 60.9934 26.2185 59.2118 26.2813 57.5429C28.6449 57.3671 30.9394 57.1788 33.3178 57.0382ZM30.2222 61.5316L30.2165 66.9031C30.719 66.8855 31.2365 66.8736 31.737 66.8461C32.1817 66.8082 32.5929 66.7569 33.0338 66.699C33.0678 65.2188 33.1178 62.8171 33.018 61.3579C32.6581 61.3552 32.0787 61.332 31.7406 61.3827L30.2222 61.5316Z" fill="#F7DD43"/>
<path d="M15.3549 58.6088C15.9259 58.7325 17.4304 60.228 17.9696 60.7268C18.0035 63.7805 17.9735 66.8908 17.9728 69.9489C17.2078 70.8145 16.4347 71.6722 15.6535 72.5222C14.3103 72.7595 12.6638 72.918 11.298 73.0267L11.2962 80.3884C10.7785 80.4784 10.326 80.5285 9.80511 80.5836C8.98406 80.6942 8.1803 80.8171 7.35198 80.8479L7.34842 59.5661C10.0109 59.1921 12.6803 58.873 15.3549 58.6088ZM11.273 63.2888C11.3401 65.0699 11.2832 66.9808 11.31 68.7839L12.2475 68.6986C12.7899 68.6302 13.5256 68.5585 14.0435 68.4452C14.1904 67.2187 14.1021 64.4225 14.0869 63.0661C13.7888 63.0791 13.2871 63.0839 13.0074 63.1201C12.4471 63.1816 11.8307 63.2624 11.273 63.2888Z" fill="#F7DD43"/>
<path d="M70.5317 81.8126C72.8236 81.8082 75.1154 81.8256 77.407 81.8648C78.0765 82.3263 79.4237 83.7203 80.0006 84.3392C80.0613 85.5893 80.0495 87.3094 79.9762 88.5513C78.6069 88.5702 77.2035 88.5533 75.8313 88.553C75.8259 87.9253 75.9764 86.6421 75.5205 86.1804C75.1562 85.8112 72.4673 86.0454 71.8089 86.0485C71.7321 86.8884 71.731 87.8232 71.7451 88.6714C71.7915 91.448 71.666 94.284 71.7867 97.0545C72.6302 97.0709 74.8605 97.1746 75.6058 96.9883C76.1841 96.2848 75.351 94.8188 76.1411 94.6396L79.9903 94.6488C80.0622 95.999 80.0265 97.4666 80.0006 98.8172C79.1701 99.6637 78.3275 100.497 77.4733 101.318C75.5482 101.418 72.1155 101.351 70.1534 101.293C69.5918 100.885 67.9762 99.3346 67.5495 98.7697C67.4202 97.5282 67.4818 94.4525 67.4974 93.054C67.5282 90.2771 67.4176 87.1453 67.5311 84.4113C68.0205 83.6798 69.7099 81.8675 70.5317 81.8126Z" fill="#F7DD43"/>
<path d="M78.5412 56.293C81.4932 56.2969 84.4185 56.4464 87.3737 56.5055C87.4221 57.915 87.396 59.4152 87.3807 60.826C85.7755 60.699 84.0721 60.6741 82.4641 60.6567L82.4574 64.894C83.5895 65.0229 85.2189 65.0131 86.3943 65.0382C86.4119 66.4151 86.4054 67.7921 86.3746 69.1686C85.1832 69.1022 83.5713 69.1506 82.4604 68.9781L82.4556 73.3801C83.7393 73.5372 86.0063 73.5344 87.3676 73.56C87.425 74.7219 87.4302 76.6276 87.3768 77.7667C84.4453 77.6909 81.5248 77.5584 78.5903 77.5112C78.4731 76.6933 78.5057 75.2101 78.5058 74.3404L78.5088 69.2401L78.5069 61.0303C78.5069 59.5377 78.4633 57.7506 78.5412 56.293Z" fill="#F7DD43"/>
<path d="M53.8772 81.7955C57.3818 81.6698 61.3609 81.7969 64.9144 81.7791C64.9308 83.1544 64.9174 84.5552 64.9174 85.9327C62.6476 85.9217 60.378 85.9234 58.1084 85.9381L58.1076 89.8393L63.6573 89.8667C63.6787 90.7763 63.7656 93.0975 63.6197 93.9354L58.1071 93.936L58.1043 100.99C57.0777 101.097 54.9284 101.056 53.8468 101.016C53.7847 99.59 53.8256 97.8436 53.825 96.3958L53.8234 88.166L53.8213 84.0446C53.8206 83.4726 53.7847 82.2781 53.8772 81.7955Z" fill="#F7DD43"/>
<path d="M120.085 59.1621C120.921 59.1887 123.495 59.5967 124.363 59.7329C126.776 62.2337 126.23 63.3914 126.216 66.6033C125.256 66.4089 124.097 66.2882 123.107 66.1338C123.096 65.3096 123.089 64.4855 123.086 63.6614C122.527 63.5399 121.93 63.5035 121.358 63.4516L121.349 66.1752C122.624 67.6526 124.322 68.9655 125.618 70.4498C126.301 71.2328 126.269 71.8918 126.236 72.8844C126.174 74.7651 126.301 76.6728 126.167 78.5438C125.613 79.2277 124.72 80.6142 123.848 80.5848C122.609 80.3139 121.259 80.2747 120.003 80.0013C119.443 79.4375 118.619 78.2613 118.14 77.585C118.032 76.2431 118.084 74.1837 118.12 72.798C119.176 72.9115 120.286 73.0834 121.343 73.2321L121.35 75.996C121.908 76.0987 122.502 76.1567 123.069 76.2229C123.125 75.2292 123.095 74.0952 123.092 73.0904C121.87 71.6328 118.984 69.2659 118.131 67.8246C118.006 66.1724 118.097 63.071 118.103 61.3211C118.725 60.5634 119.386 59.8426 120.085 59.1621Z" fill="#F7DD43"/>
<path d="M65.4596 13.7552C67.2994 13.7559 68.6147 13.986 70.3789 14.5478C70.9016 16.0311 71.902 17.5522 72.4951 19.3014C71.1319 20.5426 70.2385 21.4538 68.9749 22.8101C68.0673 22.6218 67.2709 22.522 66.3515 22.4461C65.1127 22.2901 63.3266 22.5274 62.0666 22.6954C61.6033 22.1174 61.1273 21.4109 60.6588 20.8102C60.1937 20.2139 59.5386 19.4475 59.1595 18.8158C59.6849 17.7013 61.4856 15.29 62.2385 14.2536C63.5031 13.9228 64.1534 13.8395 65.4596 13.7552Z" fill="#F7DD43"/>
<path d="M57.9775 19.6332C58.0261 19.6291 58.2822 19.6535 58.2954 19.6667C58.9841 20.3615 60.6492 22.7001 61.1305 23.3501C59.9596 25.8514 59.6396 27.4016 58.9721 29.9632C56.9685 30.8149 55.9014 31.4322 54.015 32.5392C52.9763 31.621 52.0196 30.9791 51.0242 29.9173C50.4747 27.0313 51.2775 24.3839 52.66 21.8479C54.4564 20.8532 56.0125 20.1841 57.9775 19.6332Z" fill="#F7DD43"/>
<path d="M73.1477 20.0817C74.3678 20.4911 77.4332 22.2035 78.461 22.9925L79.1393 22.4429C79.3797 22.8913 80.2162 24.7669 80.0213 25.2405L79.7393 25.3043C79.7008 25.3402 79.6621 25.376 79.6234 25.4119C79.6349 26.8075 79.5997 28.9167 79.4921 30.2033C78.6619 30.903 77.7716 31.5095 76.8876 32.1339L76.2635 32.5453C74.9444 31.6259 72.9751 30.6713 71.5302 30.0042C71.4077 29.5763 71.3241 29.0818 71.2385 28.6415C70.9035 26.918 70.4033 25.2863 69.8682 23.619C70.4043 22.7967 72.3857 20.8579 73.1477 20.0817Z" fill="#F7DD43"/>
<path d="M23.1433 57.8202C23.31 57.7847 23.8914 57.7838 24.0933 57.7786C24.0616 58.9979 24.0548 60.1911 24.0686 61.4104C24.1354 67.3051 23.9586 73.2448 24.0727 79.1352C23.0653 79.2227 22.0567 79.2975 21.0475 79.3593L20.1269 79.3932C20.0257 78.4647 20.0597 77.0603 20.0601 76.0965L20.0613 70.73L20.0608 62.8909C20.0613 61.3718 20.0261 59.5854 20.1138 58.0907C21.1113 58.023 22.1441 57.9133 23.1433 57.8202Z" fill="#F7DD43"/>
<path d="M64.529 39.8055C69.4755 39.3257 68.8047 43.3622 68.6792 46.7867L68.4877 52.6567L66.2939 52.6604L62.3566 52.6608C62.2214 50.3981 62.1105 48.1338 62.0242 45.8684C61.9322 43.1797 61.4847 40.8998 64.529 39.8055Z" fill="#F7DD43"/>
<path d="M89.1465 56.6312C89.7533 56.6466 92.519 56.6335 92.8206 56.9231C92.9339 57.5672 92.867 58.4721 92.8675 59.1654L92.8775 63.014C92.8863 67.8282 92.9664 73.0289 92.8505 77.8054L92.7003 77.9509C91.7481 77.9455 90.0694 77.9008 89.1705 77.7492C89.1134 76.743 89.1167 75.6393 89.1273 74.6282C89.1901 68.6459 89.024 62.6083 89.1465 56.6312Z" fill="#F7DD43"/>
<path d="M49.4689 39.8166C52.5769 39.7357 53.1593 42.2541 53.3378 44.833C53.52 47.4642 54.0342 50.1324 54.1043 52.7838C53.2335 52.8439 52.0115 52.8261 51.1138 52.8391C50.1147 52.8885 49.1151 52.9227 48.115 52.942L47.1505 46.577C46.7372 43.8748 45.6645 40.3673 49.4689 39.8166Z" fill="#F7DD43"/>
<path d="M80.609 39.8102C82.501 39.5663 84.0526 40.599 84.1407 42.6413C84.1935 43.8673 83.8983 45.3965 83.7208 46.622C83.4255 48.692 83.118 50.7603 82.7984 52.8265C82.1496 52.8699 81.0961 52.8265 80.4178 52.8208C79.6456 52.8058 77.5225 52.8259 76.8601 52.6049C76.6311 51.9781 77.7177 43.9877 77.7917 42.8334C77.8773 41.4968 79.2093 40.1093 80.609 39.8102Z" fill="#F7DD43"/>
<path d="M64.1415 11.4196C69.5803 10.7037 75.4655 13.3551 78.9175 17.6843C80.9427 20.2241 81.9271 22.5875 82.6582 25.7501C82.2654 26.0735 81.8843 26.519 81.534 26.9C80.0402 18.9734 74.8551 13.8452 67.1115 12.8654C63.7068 12.5494 60.0211 13.5379 57.1717 15.4542C52.7978 18.396 51.1154 21.8729 50.0037 26.9082C49.5191 26.4161 49.3717 26.2775 48.8067 25.8953C49.6304 22.5742 50.4086 20.416 52.5858 17.6648C55.3279 14.1999 59.8334 11.8245 64.1415 11.4196Z" fill="#F7DD43"/>
<path d="M36.715 40.2366C39.0847 40.2707 39.6369 42.2016 39.9918 44.2033C40.5227 47.1978 41.1944 50.1758 41.6886 53.1785C41.0526 53.2765 40.1857 53.3009 39.5269 53.3387C38.648 53.3404 37.6134 53.4404 36.6804 53.4563C36.4334 52.5137 35.8497 50.3165 35.7668 49.4421C35.5025 46.6526 32.5806 41.1344 36.715 40.2366Z" fill="#F7DD43"/>
<path d="M93.6274 40.1555C95.4874 40.1237 96.4381 41.6048 96.1898 43.4278C95.8844 45.67 95.2093 47.8694 94.8199 50.1025C94.6787 50.9122 94.4594 52.453 94.1146 53.1487C93.7856 53.4286 92.5333 53.2462 92.056 53.2065C91.061 53.1903 90.245 53.1782 89.2521 53.0732C89.3037 52.0716 89.7839 49.9322 89.969 48.8183C90.3412 46.8576 90.6333 44.8728 91.0525 42.9226C91.3752 41.4211 92.1688 40.4719 93.6274 40.1555Z" fill="#F7DD43"/>
<path d="M59.2072 31.0002C59.6702 31.1092 61.066 32.3093 61.5375 32.6797C62.5878 33.515 63.6763 34.2976 64.7993 35.0249C64.7775 35.9011 64.7606 36.7777 64.749 37.6542C62.9885 38.0058 62.3665 38.4688 61.1555 39.758C60.848 39.6881 60.8646 39.6234 60.5898 39.3731C59.5669 38.3371 58.3734 38.1594 57.0376 38.0938C56.3631 37.0063 56.1607 36.6439 55.1342 35.8816C54.8059 35.1044 54.4279 34.3714 54.6682 33.5298C55.0131 33.0757 58.5028 31.3524 59.2072 31.0002Z" fill="#F7DD43"/>
<path d="M71.0522 31.0067C72.3322 31.5296 74.4988 32.7989 75.7819 33.506L75.7764 34.902C74.441 35.7894 74.0095 36.4262 73.3952 37.9246C72.0243 38.2452 71.3261 38.3758 70.2246 39.3479C69.9075 39.6742 69.7715 39.9249 69.405 39.5266C68.2796 38.3029 67.4137 37.9254 65.8553 37.6271C65.7524 36.754 65.7379 35.9009 65.7098 35.0231C67.5759 33.5913 69.1185 32.5647 71.0522 31.0067Z" fill="#F7DD43"/>
<path d="M46.5079 91.3699L47.5808 91.3231C47.5868 92.5272 47.5839 93.7315 47.5719 94.9354C46.1528 94.8357 43.7245 94.3545 42.2561 94.1343C40.514 93.8731 37.9255 93.6074 36.3336 93.1005C35.1968 92.7473 34.0649 92.3772 32.9386 91.9898C36.5507 91.8429 40.1674 91.5621 43.7832 91.4556C44.6938 91.4288 45.5983 91.4287 46.5079 91.3699Z" fill="#F7DD43"/>
<path d="M85.4862 91.4198C88.4583 91.3794 91.6624 91.7472 94.6584 91.7964C96.1365 91.8207 97.9244 91.9213 99.3728 92.1005L97.2478 92.8173C94.9864 93.5983 92.5293 93.8379 90.1611 94.2261C88.8274 94.4447 86.761 94.8352 85.4885 94.9208C85.4361 93.9492 85.4043 92.3733 85.4862 91.4198Z" fill="#F7DD43"/>
</g>
<defs>
<clipPath id="clip0_436_254">
<rect width="132" height="114" fill="white"/>
</clipPath>
</defs>
</svg>
