<svg width="170" height="276" viewBox="0 0 170 276" fill="none" xmlns="http://www.w3.org/2000/svg">
<g clip-path="url(#clip0_494_637)">
<path d="M90.2757 276.39C87.5319 276.39 84.788 276.39 81.9905 276.283C79.1214 274.5 76.2852 272.857 73.4954 271.139C69.2425 268.521 65.0371 265.825 60.7837 263.207C54.8036 259.527 48.7786 255.918 42.8086 252.221C36.5615 248.353 30.3715 244.393 24.1288 240.517C19.3919 237.577 14.6342 234.668 9.84319 231.816C6.18214 229.637 2.62824 227.398 1.07245 223.116C1.03178 223.004 0.626086 223.024 0.390625 222.983C0.390624 193.868 0.390624 164.752 0.490981 135.587C1.03705 134.856 1.41648 134.118 1.94128 133.504C3.34044 131.865 4.56167 129.933 6.28756 128.744C10.2343 126.026 14.4493 123.697 18.5378 121.182C22.5339 118.723 26.5081 116.229 30.6062 113.77C30.9066 113.677 31.0928 113.565 31.4177 113.437C38.5063 109.199 45.4561 104.977 52.5414 100.714C59.7415 96.3385 66.8062 92.0047 74.002 87.6471C75.5318 86.7039 76.9164 85.7624 78.3313 84.8689C82.5906 82.1793 86.9265 82.0811 91.3034 84.5725C93.0365 85.559 94.7396 86.5981 96.5588 87.7096C103.759 92.045 110.857 96.2839 118.053 100.619C124.576 104.601 130.992 108.499 137.433 112.356C138.175 112.8 139.059 113.006 140.004 113.384C140.785 113.952 141.398 114.525 142.101 114.951C144.309 116.293 146.553 117.574 148.777 118.888C153.528 121.696 158.277 124.504 163.021 127.322C165.365 128.714 167.534 130.256 168.664 132.914C169.035 133.786 169.804 134.49 170.391 135.271C170.391 164.387 170.391 193.502 170.281 222.671C169.981 223.033 169.793 223.343 169.601 223.651C168.606 225.248 167.958 227.318 166.547 228.351C162.469 231.34 158.105 233.946 153.814 236.638C145.447 241.887 137.052 247.092 128.67 252.317C124.539 254.892 120.408 257.468 116.28 260.048C112.03 262.704 107.814 265.417 103.526 268.011C99.1944 270.63 94.7893 273.128 90.432 275.705C90.293 275.787 90.3239 276.155 90.2757 276.39ZM14.5095 218.73C17.2096 220.721 19.7922 222.898 22.6295 224.67C36.8046 233.521 51.0454 242.268 65.2654 251.048C70.7431 254.43 76.2379 257.785 81.7034 261.187C84.7719 263.097 87.7072 263.164 90.8251 261.156C98.2595 256.367 105.779 251.709 113.26 246.991C126.79 238.457 140.321 229.921 153.843 221.374C155.986 220.019 157.084 217.999 157.087 215.498C157.11 191.525 157.111 167.551 157.088 143.577C157.086 141.209 155.995 139.276 153.975 138.048C146.308 133.385 138.599 128.791 130.91 124.166C116.923 115.753 102.936 107.34 88.9555 98.9162C86.2985 97.3151 83.5824 97.3266 80.997 98.8606C75.7405 101.979 70.5714 105.245 65.3634 108.445C49.4067 118.25 33.4622 128.075 17.4772 137.834C14.897 139.41 13.6337 141.46 13.6392 144.511C13.6817 167.899 13.6509 191.288 13.692 214.677C13.6942 215.939 14.1373 217.2 14.5095 218.73Z" fill="#D8892C"/>
<path d="M35.5797 1.62051C35.5797 1.62051 35.7299 1.56808 35.9687 1.55995C37.0349 1.16449 37.8624 0.777159 38.6899 0.389832C38.6899 0.389832 38.8853 0.389832 39.0707 0.514636C40.3067 0.813691 41.3667 1.17804 42.4062 1.1271C45.7309 0.964177 49.048 0.647286 52.3681 0.389832C52.3681 0.389832 52.5635 0.389832 52.7152 0.549844C52.6925 1.71071 52.3669 2.71141 52.3659 3.71244C52.3387 30.4096 52.3414 57.1068 52.3481 83.804C52.3495 89.4543 52.386 95.1045 52.4063 100.755C45.4565 104.977 38.5067 109.199 31.4128 113.254C31.2684 80.7389 31.2436 48.3912 31.3013 16.0438C31.3078 12.3751 31.7779 8.70722 32.033 5.03898C32.033 5.03898 32.0403 5.06359 32.16 5.02574C32.4608 4.60232 32.642 4.21674 32.8231 3.83117C33.1243 3.49325 33.4255 3.15533 33.9714 2.76643C34.5295 2.44615 34.843 2.17684 35.1565 1.90752C35.1565 1.90752 35.1608 1.93638 35.2313 1.9003C35.4098 1.80045 35.5025 1.71921 35.5797 1.62051Z" fill="#E2161C"/>
<path d="M52.5415 100.714C52.3856 95.1045 52.3492 89.4543 52.3477 83.804C52.3411 57.1068 52.3383 30.4096 52.3656 3.71243C52.3666 2.7114 52.6922 1.7107 52.8125 0.549834C59.6709 0.389822 66.5833 0.389822 73.6327 0.567497C73.809 5.95342 73.8482 11.1617 73.8513 16.5301C73.8384 17.2349 73.8615 17.7796 73.8504 18.5041C73.8118 34.4337 73.7982 50.1836 73.8072 65.9334C73.8112 72.8014 73.8613 79.6694 73.8585 86.6766C73.8414 87.1009 73.8561 87.3859 73.8709 87.6709C66.8062 92.0047 59.7416 96.3385 52.5415 100.714Z" fill="#F7F7F8"/>
<path d="M117.955 100.523C110.857 96.2839 103.759 92.045 96.5697 87.5338C96.4845 58.4398 96.4911 29.6181 96.5511 0.698193C96.5793 0.529965 96.554 0.459898 96.5288 0.389832C103.441 0.389832 110.354 0.389832 117.479 0.498528C117.801 0.795698 117.91 0.984171 118.014 1.35502C118.004 21.9051 117.991 42.2728 117.998 62.6405C118.003 75.0279 118.04 87.4153 118.033 99.9218C118.015 100.203 118.025 100.365 118.016 100.508C117.997 100.49 117.955 100.523 117.955 100.523Z" fill="#F8F8F7"/>
<path d="M96.3458 0.389832C96.5542 0.459898 96.5795 0.529965 96.4033 0.759768C95.4339 1.00187 94.6662 1.15297 93.8979 1.15569C87.9888 1.17664 82.0793 1.20054 76.1706 1.14682C74.7527 1.13393 74.2027 1.58705 74.231 3.04221C74.3028 6.73294 74.2735 10.4262 74.2364 14.118C74.2288 14.8697 74.0095 15.6193 73.8877 16.3699C73.8485 11.1617 73.8093 5.95343 73.8162 0.567507C81.2958 0.389832 88.7292 0.389832 96.3458 0.389832Z" fill="#033ACC"/>
<path d="M118.019 1.17264C117.91 0.984171 117.801 0.795698 117.662 0.498528C122.981 0.389832 128.331 0.389832 133.863 0.389832C134.667 0.949577 135.289 1.50932 135.817 2.19248C132.986 1.07157 130.082 1.10393 127.161 1.15483C124.115 1.20791 121.067 1.17049 118.019 1.17264Z" fill="#E50A0D"/>
<path d="M52.1845 0.389832C49.0476 0.647285 45.7305 0.964177 42.4058 1.1271C41.3662 1.17804 40.3063 0.813691 39.168 0.514635C43.3873 0.389832 47.6943 0.389832 52.1845 0.389832Z" fill="#DD0203"/>
<path d="M38.527 0.389832C37.8623 0.777159 37.0348 1.16449 36.0474 1.5489C36.248 1.22898 36.6085 0.911981 36.8524 0.492407C37.2786 0.389832 37.8214 0.389832 38.527 0.389832Z" fill="#DD0203"/>
<path d="M118.014 1.35502C121.067 1.17049 124.115 1.20791 127.161 1.15483C130.082 1.10393 132.986 1.07157 135.877 2.31557C136.029 2.31526 136.011 2.32787 136.046 2.44741C136.455 2.74261 136.831 2.91827 137.206 3.09393C137.206 3.09393 137.176 3.11379 137.183 3.2305C137.424 3.66508 137.658 3.98295 137.892 4.30082C139.449 6.46185 140.006 8.85454 139.935 11.5218C139.812 16.1303 139.894 20.7443 139.784 25.4005C139.586 24.0548 139.493 22.6645 139.388 21.0813C139.251 21.3945 139.157 21.5089 139.157 21.6233C139.146 29.4392 139.128 37.2551 139.168 45.0708C139.171 45.6405 139.605 46.2081 139.839 46.7767C139.858 54.5637 139.887 62.3507 139.893 70.1378C139.905 84.4169 139.902 98.696 139.892 113.149C139.06 113.006 138.175 112.8 137.434 112.356C130.992 108.499 124.576 104.601 118.054 100.619C117.955 100.523 117.997 100.49 118.084 100.452C118.135 100.211 118.099 100.007 118.062 99.8027C118.04 87.4153 118.003 75.0279 117.998 62.6405C117.991 42.2728 118.004 21.9051 118.014 1.35502Z" fill="#E1161C"/>
<path d="M73.8514 16.5301C74.0092 15.6193 74.2285 14.8697 74.2361 14.118C74.2732 10.4262 74.3025 6.73295 74.2307 3.04222C74.2024 1.58706 74.7524 1.13394 76.1703 1.14683C82.079 1.20055 87.9885 1.17665 93.8976 1.1557C94.6659 1.15298 95.4337 1.00189 96.3496 0.857941C96.491 29.6181 96.4844 58.4398 96.4671 87.4374C94.7397 86.5981 93.0367 85.559 91.3035 84.5725C86.9266 82.0811 82.5907 82.1793 78.3315 84.8689C76.9165 85.7625 75.5319 86.7039 74.0022 87.6472C73.8562 87.3859 73.8414 87.1009 73.9478 86.5428C74.1306 85.695 74.246 85.1204 74.2462 84.5457C74.2552 63.1577 74.2569 41.7697 74.2378 20.3817C74.2372 19.6958 74.0076 19.0101 73.8847 18.3242C73.8616 17.7796 73.8384 17.2349 73.8514 16.5301Z" fill="#0749CE"/>
<path d="M14.4423 218.596C14.1373 217.2 13.6942 215.939 13.692 214.677C13.6509 191.288 13.6817 167.899 13.6392 144.511C13.6336 141.46 14.897 139.41 17.4772 137.834C33.4622 128.075 49.4066 118.25 65.3634 108.445C70.5714 105.245 75.7405 101.979 80.997 98.8606C83.5823 97.3266 86.2985 97.3151 88.9555 98.9162C102.936 107.34 116.923 115.753 130.91 124.166C138.599 128.791 146.308 133.385 153.975 138.048C155.995 139.276 157.086 141.209 157.088 143.578C157.111 167.551 157.11 191.525 157.087 215.498C157.084 217.999 155.986 220.019 153.843 221.374C140.321 229.921 126.79 238.457 113.26 246.991C105.779 251.709 98.2594 256.367 90.8251 261.156C87.7072 263.164 84.7719 263.097 81.7034 261.187C76.2379 257.785 70.7431 254.43 65.2654 251.048C51.0454 242.268 36.8045 233.521 22.6295 224.67C19.7922 222.898 17.2095 220.721 14.4423 218.596ZM17.1947 152.229C17.1945 172.818 17.2149 193.408 17.162 213.998C17.1567 216.053 17.8379 217.494 19.6013 218.485C20.2808 218.867 20.9251 219.31 21.5889 219.721C34.8628 227.921 48.1373 236.121 61.4113 244.321C68.7679 248.866 76.1248 253.41 83.4797 257.958C85.3699 259.127 87.2099 259.228 89.1328 257.946C91.5123 256.36 93.9646 254.883 96.3833 253.355C106.443 247.002 116.503 240.648 126.562 234.294C134.642 229.19 142.712 224.07 150.809 218.993C152.741 217.782 153.735 216.261 153.625 213.869C153.464 210.369 153.583 206.856 153.583 203.348C153.582 184.058 153.562 164.767 153.608 145.477C153.613 143.176 152.92 141.596 150.82 140.395C145.121 137.135 139.521 133.703 133.898 130.313C123.653 124.138 113.418 117.945 103.18 111.759C98.1167 108.699 93.0421 105.658 87.9977 102.567C85.9077 101.287 83.946 101.109 81.8379 102.592C80.0871 103.822 78.1787 104.828 76.352 105.953C64.1738 113.453 52.004 120.967 39.8204 128.458C33.1197 132.579 26.4073 136.68 19.678 140.754C17.9616 141.793 17.0622 143.137 17.1709 145.215C17.286 147.418 17.1956 149.631 17.1947 152.229Z" fill="#C97213"/>
<path d="M31.9097 5.10983C31.7776 8.70722 31.3075 12.3751 31.301 16.0438C31.2434 48.3912 31.2681 80.7389 31.2738 113.27C31.093 113.565 30.9068 113.677 30.6063 113.77C30.4929 85.0435 30.4937 56.336 30.602 27.31C30.7644 21.7427 30.8283 16.494 30.859 11.2451C30.8619 10.7486 30.6566 10.2509 30.548 9.75372C30.9608 8.22938 31.3737 6.70503 31.9097 5.10983Z" fill="#DD0203"/>
<path d="M139.866 46.5956C139.605 46.2081 139.171 45.6405 139.168 45.0708C139.128 37.2551 139.146 29.4392 139.157 21.6234C139.157 21.5089 139.251 21.3945 139.388 21.0813C139.493 22.6645 139.586 24.0548 139.758 25.5808C139.856 32.6159 139.874 39.5152 139.866 46.5956Z" fill="#E10509"/>
<path d="M137.916 4.17172C137.658 3.98296 137.424 3.66509 137.194 3.216C137.445 3.40406 137.693 3.72334 137.916 4.17172Z" fill="#E50A0D"/>
<path d="M137.153 2.9772C136.83 2.91828 136.455 2.74262 136.047 2.43686C136.376 2.49133 136.738 2.6759 137.153 2.9772Z" fill="#E50A0D"/>
<path d="M30.5216 9.93448C30.6565 10.2509 30.8618 10.7486 30.8589 11.2451C30.8282 16.494 30.7643 21.7427 30.6284 27.1274C30.5299 21.5473 30.5126 15.8312 30.5216 9.93448Z" fill="#DE1818"/>
<path d="M32.7057 3.88968C32.6415 4.21676 32.4604 4.60233 32.147 5.023C32.206 4.68812 32.3973 4.31815 32.7057 3.88968Z" fill="#DD0203"/>
<path d="M35.0254 1.92117C34.8428 2.17682 34.5293 2.44614 34.0757 2.71995C34.2552 2.46125 34.5748 2.19804 35.0254 1.92117Z" fill="#DD0203"/>
<path d="M35.4745 1.61432C35.5023 1.7192 35.4097 1.80044 35.2166 1.90183C35.2109 1.82901 35.2901 1.71857 35.4745 1.61432Z" fill="#DD0203"/>
<path d="M73.8505 18.5041C74.0076 19.0101 74.2372 19.6958 74.2378 20.3817C74.257 41.7697 74.2552 63.1577 74.2463 84.5457C74.246 85.1203 74.1306 85.695 73.9798 86.4035C73.8615 79.6694 73.8113 72.8014 73.8074 65.9334C73.7984 50.1836 73.8119 34.4338 73.8505 18.5041Z" fill="#033ACC"/>
<path d="M118.033 99.9218C118.098 100.007 118.135 100.211 118.103 100.471C118.025 100.365 118.014 100.203 118.033 99.9218Z" fill="#DE0C12"/>
<path d="M17.57 152.076C17.5707 149.673 17.6611 147.46 17.546 145.257C17.4374 143.179 18.3367 141.835 20.0531 140.796C26.7825 136.722 33.4948 132.621 40.1956 128.501C52.3791 121.009 64.5489 113.495 76.7272 105.995C78.5538 104.871 80.4623 103.864 82.213 102.634C84.3212 101.152 86.2828 101.329 88.3728 102.609C93.4173 105.7 98.4918 108.741 103.555 111.801C113.794 117.987 124.028 124.18 134.273 130.355C139.897 133.745 145.496 137.177 151.195 140.437C153.295 141.638 153.988 143.218 153.983 145.519C153.937 164.809 153.958 184.1 153.958 203.391C153.958 206.898 153.839 210.411 154 213.911C154.11 216.303 153.116 217.824 151.184 219.035C143.087 224.112 135.017 229.232 126.937 234.336C116.878 240.69 106.819 247.044 96.7585 253.397C94.3397 254.925 91.8874 256.402 89.508 257.988C87.5851 259.27 85.745 259.169 83.8548 258C76.4999 253.452 69.1431 248.908 61.7865 244.363C48.5124 236.163 35.2379 227.963 21.964 219.763C21.3003 219.353 20.656 218.909 19.9765 218.527C18.213 217.536 17.5319 216.095 17.5371 214.04C17.59 193.45 17.5696 172.861 17.57 152.076ZM85.375 175.042C85.375 197.551 85.5 157.962 85.5 180.5C92.6552 180.5 78.386 179 85.4998 179C85.4998 148.557 90.6947 196.5 90.6947 180.5C90.6947 180.5 96.49 177.017 90.6947 177C84.8995 176.983 95.2343 180.974 89.4392 181C86.7231 185 100.528 168.734 91.5 176C82.4722 183.266 97.9354 172.401 91.5 177.029C91.0867 177.327 87.5044 172.544 87.5 173C87.4416 179.023 88.5 172.637 88.5 179C90.6133 177.701 85.9253 175.556 87.7805 174.408C91.6491 172.015 82.2627 176.765 86.1532 174.408C86.4883 174.205 85.1147 173.34 85.375 175.042Z" fill="url(#paint0_radial_494_637)"/>
<mask id="path-23-outside-1_494_637" maskUnits="userSpaceOnUse" x="48" y="131" width="74" height="99" fill="black">
<rect fill="white" x="48" y="131" width="74" height="99"/>
<path d="M84.9545 228.273C78.1667 228.273 72.1212 227.106 66.8182 224.773C61.5455 222.409 57.3788 219.167 54.3182 215.045C51.2879 210.894 49.7273 206.106 49.6364 200.682H69.4545C69.5758 202.955 70.3182 204.955 71.6818 206.682C73.0758 208.379 74.9242 209.697 77.2273 210.636C79.5303 211.576 82.1212 212.045 85 212.045C88 212.045 90.6515 211.515 92.9545 210.455C95.2576 209.394 97.0606 207.924 98.3636 206.045C99.6667 204.167 100.318 202 100.318 199.545C100.318 197.061 99.6212 194.864 98.2273 192.955C96.8636 191.015 94.8939 189.5 92.3182 188.409C89.7727 187.318 86.7424 186.773 83.2273 186.773H74.5455V172.318H83.2273C86.197 172.318 88.8182 171.803 91.0909 170.773C93.3939 169.742 95.1818 168.318 96.4545 166.5C97.7273 164.652 98.3636 162.5 98.3636 160.045C98.3636 157.712 97.803 155.667 96.6818 153.909C95.5909 152.121 94.0455 150.727 92.0455 149.727C90.0758 148.727 87.7727 148.227 85.1364 148.227C82.4697 148.227 80.0303 148.712 77.8182 149.682C75.6061 150.621 73.8333 151.97 72.5 153.727C71.1667 155.485 70.4545 157.545 70.3636 159.909H51.5C51.5909 154.545 53.1212 149.818 56.0909 145.727C59.0606 141.636 63.0606 138.439 68.0909 136.136C73.1515 133.803 78.8636 132.636 85.2273 132.636C91.6515 132.636 97.2727 133.803 102.091 136.136C106.909 138.47 110.652 141.621 113.318 145.591C116.015 149.53 117.348 153.955 117.318 158.864C117.348 164.076 115.727 168.424 112.455 171.909C109.212 175.394 104.985 177.606 99.7727 178.545V179.273C106.621 180.152 111.833 182.53 115.409 186.409C119.015 190.258 120.803 195.076 120.773 200.864C120.803 206.167 119.273 210.879 116.182 215C113.121 219.121 108.894 222.364 103.5 224.727C98.1061 227.091 91.9242 228.273 84.9545 228.273Z"/>
</mask>
<path d="M84.9545 228.273C78.1667 228.273 72.1212 227.106 66.8182 224.773C61.5455 222.409 57.3788 219.167 54.3182 215.045C51.2879 210.894 49.7273 206.106 49.6364 200.682H69.4545C69.5758 202.955 70.3182 204.955 71.6818 206.682C73.0758 208.379 74.9242 209.697 77.2273 210.636C79.5303 211.576 82.1212 212.045 85 212.045C88 212.045 90.6515 211.515 92.9545 210.455C95.2576 209.394 97.0606 207.924 98.3636 206.045C99.6667 204.167 100.318 202 100.318 199.545C100.318 197.061 99.6212 194.864 98.2273 192.955C96.8636 191.015 94.8939 189.5 92.3182 188.409C89.7727 187.318 86.7424 186.773 83.2273 186.773H74.5455V172.318H83.2273C86.197 172.318 88.8182 171.803 91.0909 170.773C93.3939 169.742 95.1818 168.318 96.4545 166.5C97.7273 164.652 98.3636 162.5 98.3636 160.045C98.3636 157.712 97.803 155.667 96.6818 153.909C95.5909 152.121 94.0455 150.727 92.0455 149.727C90.0758 148.727 87.7727 148.227 85.1364 148.227C82.4697 148.227 80.0303 148.712 77.8182 149.682C75.6061 150.621 73.8333 151.97 72.5 153.727C71.1667 155.485 70.4545 157.545 70.3636 159.909H51.5C51.5909 154.545 53.1212 149.818 56.0909 145.727C59.0606 141.636 63.0606 138.439 68.0909 136.136C73.1515 133.803 78.8636 132.636 85.2273 132.636C91.6515 132.636 97.2727 133.803 102.091 136.136C106.909 138.47 110.652 141.621 113.318 145.591C116.015 149.53 117.348 153.955 117.318 158.864C117.348 164.076 115.727 168.424 112.455 171.909C109.212 175.394 104.985 177.606 99.7727 178.545V179.273C106.621 180.152 111.833 182.53 115.409 186.409C119.015 190.258 120.803 195.076 120.773 200.864C120.803 206.167 119.273 210.879 116.182 215C113.121 219.121 108.894 222.364 103.5 224.727C98.1061 227.091 91.9242 228.273 84.9545 228.273Z" fill="white"/>
<path d="M66.8182 224.773L66.4091 225.685L66.4154 225.688L66.8182 224.773ZM54.3182 215.045L53.5104 215.635L53.5154 215.642L54.3182 215.045ZM49.6364 200.682V199.682H48.6195L48.6365 200.699L49.6364 200.682ZM69.4545 200.682L70.4531 200.629L70.4026 199.682H69.4545V200.682ZM71.6818 206.682L70.8969 207.301L70.9029 207.309L70.9091 207.317L71.6818 206.682ZM77.2273 210.636L76.8496 211.562H76.8496L77.2273 210.636ZM92.9545 210.455L92.5362 209.546V209.546L92.9545 210.455ZM98.3636 206.045L99.1854 206.615V206.615L98.3636 206.045ZM98.2273 192.955L97.4092 193.53L97.4144 193.537L97.4197 193.544L98.2273 192.955ZM92.3182 188.409L91.9243 189.328L91.9282 189.33L92.3182 188.409ZM74.5455 186.773H73.5455V187.773H74.5455V186.773ZM74.5455 172.318V171.318H73.5455V172.318H74.5455ZM91.0909 170.773L90.6825 169.86L90.678 169.862L91.0909 170.773ZM96.4545 166.5L97.2738 167.073L97.2782 167.067L96.4545 166.5ZM96.6818 153.909L95.8282 154.43L95.8334 154.438L95.8388 154.447L96.6818 153.909ZM92.0455 149.727L91.5928 150.619L91.5982 150.622L92.0455 149.727ZM77.8182 149.682L78.2091 150.602L78.2197 150.598L77.8182 149.682ZM72.5 153.727L73.2967 154.332H73.2967L72.5 153.727ZM70.3636 159.909V160.909H71.3259L71.3629 159.948L70.3636 159.909ZM51.5 159.909L50.5001 159.892L50.4829 160.909H51.5V159.909ZM56.0909 145.727L56.9002 146.315H56.9002L56.0909 145.727ZM68.0909 136.136L68.5072 137.046L68.5096 137.044L68.0909 136.136ZM102.091 136.136L102.527 135.236V135.236L102.091 136.136ZM113.318 145.591L112.488 146.149L112.493 146.156L113.318 145.591ZM117.318 158.864L116.318 158.857L116.318 158.869L117.318 158.864ZM112.455 171.909L111.726 171.225L111.722 171.228L112.455 171.909ZM99.7727 178.545L99.5954 177.561L98.7727 177.71V178.545H99.7727ZM99.7727 179.273H98.7727V180.153L99.6455 180.265L99.7727 179.273ZM115.409 186.409L114.674 187.087L114.679 187.093L115.409 186.409ZM120.773 200.864L119.773 200.858L119.773 200.869L120.773 200.864ZM116.182 215L115.382 214.4L115.379 214.404L116.182 215ZM103.5 224.727L103.099 223.811V223.811L103.5 224.727ZM84.9545 228.273V227.273C78.2818 227.273 72.3771 226.126 67.2209 223.857L66.8182 224.773L66.4154 225.688C71.8653 228.086 78.0515 229.273 84.9545 229.273V228.273ZM66.8182 224.773L67.2272 223.86C62.0907 221.558 58.0673 218.417 55.121 214.449L54.3182 215.045L53.5154 215.642C56.6903 219.917 61.0002 223.261 66.4091 225.685L66.8182 224.773ZM54.3182 215.045L55.1259 214.456C52.2241 210.48 50.7239 205.895 50.6362 200.665L49.6364 200.682L48.6365 200.699C48.7307 206.317 50.3516 211.307 53.5105 215.635L54.3182 215.045ZM49.6364 200.682V201.682H69.4545V200.682V199.682H49.6364V200.682ZM69.4545 200.682L68.456 200.735C68.5878 203.207 69.4007 205.406 70.8969 207.301L71.6818 206.682L72.4667 206.062C71.2357 204.503 70.5637 202.702 70.4531 200.629L69.4545 200.682ZM71.6818 206.682L70.9091 207.317C72.4218 209.158 74.4134 210.569 76.8496 211.562L77.2273 210.636L77.605 209.71C75.4351 208.825 73.7297 207.599 72.4545 206.047L71.6818 206.682ZM77.2273 210.636L76.8496 211.562C79.2899 212.558 82.0119 213.045 85 213.045V212.045V211.045C82.2306 211.045 79.7707 210.594 77.605 209.71L77.2273 210.636ZM85 212.045V213.045C88.1183 213.045 90.9168 212.494 93.3728 211.363L92.9545 210.455L92.5362 209.546C90.3862 210.536 87.8817 211.045 85 211.045V212.045ZM92.9545 210.455L93.3728 211.363C95.82 210.236 97.7697 208.657 99.1854 206.615L98.3636 206.045L97.5419 205.476C96.3515 207.192 94.6951 208.552 92.5362 209.546L92.9545 210.455ZM98.3636 206.045L99.1854 206.615C100.613 204.557 101.318 202.188 101.318 199.545H100.318H99.3182C99.3182 201.812 98.7202 203.777 97.5419 205.476L98.3636 206.045ZM100.318 199.545H101.318C101.318 196.86 100.56 194.454 99.0349 192.365L98.2273 192.955L97.4197 193.544C98.6819 195.273 99.3182 197.261 99.3182 199.545H100.318ZM98.2273 192.955L99.0453 192.379C97.5561 190.261 95.4247 188.639 92.7082 187.488L92.3182 188.409L91.9282 189.33C94.3631 190.361 96.1712 191.769 97.4092 193.53L98.2273 192.955ZM92.3182 188.409L92.7121 187.49C90.0135 186.333 86.8427 185.773 83.2273 185.773V186.773V187.773C86.6421 187.773 89.5319 188.303 91.9243 189.328L92.3182 188.409ZM83.2273 186.773V185.773H74.5455V186.773V187.773H83.2273V186.773ZM74.5455 186.773H75.5455V172.318H74.5455H73.5455V186.773H74.5455ZM74.5455 172.318V173.318H83.2273V172.318V171.318H74.5455V172.318ZM83.2273 172.318V173.318C86.3127 173.318 89.0791 172.783 91.5038 171.684L91.0909 170.773L90.678 169.862C88.5573 170.823 86.0812 171.318 83.2273 171.318V172.318ZM91.0909 170.773L91.4993 171.686C93.9444 170.592 95.8837 169.059 97.2738 167.073L96.4545 166.5L95.6353 165.927C94.4799 167.577 92.8435 168.893 90.6825 169.86L91.0909 170.773ZM96.4545 166.5L97.2782 167.067C98.6766 165.036 99.3636 162.683 99.3636 160.045H98.3636H97.3636C97.3636 162.317 96.778 164.267 95.6309 165.933L96.4545 166.5ZM98.3636 160.045H99.3636C99.3636 157.545 98.7605 155.308 97.5249 153.371L96.6818 153.909L95.8388 154.447C96.8456 156.025 97.3636 157.879 97.3636 160.045H98.3636ZM96.6818 153.909L97.5355 153.388C96.3401 151.429 94.6487 149.911 92.4927 148.833L92.0455 149.727L91.5982 150.622C93.4422 151.544 94.8417 152.813 95.8282 154.43L96.6818 153.909ZM92.0455 149.727L92.4981 148.836C90.3635 147.752 87.8998 147.227 85.1364 147.227V148.227V149.227C87.6456 149.227 89.788 149.703 91.5928 150.619L92.0455 149.727ZM85.1364 148.227V147.227C82.346 147.227 79.768 147.735 77.4167 148.766L77.8182 149.682L78.2197 150.598C80.2926 149.689 82.5934 149.227 85.1364 149.227V148.227ZM77.8182 149.682L77.4273 148.761C75.0694 149.763 73.1513 151.214 71.7033 153.123L72.5 153.727L73.2967 154.332C74.5153 152.725 76.1427 151.48 78.2091 150.602L77.8182 149.682ZM72.5 153.727L71.7033 153.123C70.2369 155.056 69.4626 157.318 69.3644 159.871L70.3636 159.909L71.3629 159.948C71.4465 157.773 72.0964 155.914 73.2967 154.332L72.5 153.727ZM70.3636 159.909V158.909H51.5V159.909V160.909H70.3636V159.909ZM51.5 159.909L52.4999 159.926C52.5875 154.754 54.0586 150.229 56.9002 146.315L56.0909 145.727L55.2817 145.14C52.1838 149.407 50.5943 154.337 50.5001 159.892L51.5 159.909ZM56.0909 145.727L56.9002 146.315C59.7594 142.376 63.6182 139.284 68.5072 137.046L68.0909 136.136L67.6746 135.227C62.503 137.595 58.3618 140.897 55.2817 145.14L56.0909 145.727ZM68.0909 136.136L68.5096 137.044C73.4215 134.78 78.9877 133.636 85.2273 133.636V132.636V131.636C78.7396 131.636 72.8815 132.826 67.6722 135.228L68.0909 136.136ZM85.2273 132.636V133.636C91.5304 133.636 96.9973 134.781 101.655 137.036L102.091 136.136L102.527 135.236C97.5482 132.825 91.7727 131.636 85.2273 131.636V132.636ZM102.091 136.136L101.655 137.036C106.333 139.302 109.932 142.343 112.488 146.149L113.318 145.591L114.148 145.033C111.371 140.9 107.485 137.637 102.527 135.236L102.091 136.136ZM113.318 145.591L112.493 146.156C115.071 149.922 116.347 154.146 116.318 158.857L117.318 158.864L118.318 158.87C118.35 153.763 116.959 149.138 114.143 145.026L113.318 145.591ZM117.318 158.864L116.318 158.869C116.347 163.85 114.806 167.944 111.726 171.225L112.455 171.909L113.183 172.594C116.648 168.904 118.35 164.301 118.318 158.858L117.318 158.864ZM112.455 171.909L111.722 171.228C108.644 174.537 104.62 176.656 99.5954 177.561L99.7727 178.545L99.9501 179.53C105.35 178.556 109.78 176.251 113.187 172.59L112.455 171.909ZM99.7727 178.545H98.7727V179.273H99.7727H100.773V178.545H99.7727ZM99.7727 179.273L99.6455 180.265C106.334 181.123 111.301 183.428 114.674 187.087L115.409 186.409L116.144 185.731C112.366 181.632 106.909 179.18 99.9 178.281L99.7727 179.273ZM115.409 186.409L114.679 187.093C118.093 190.736 119.802 195.299 119.773 200.858L120.773 200.864L121.773 200.869C121.804 194.852 119.938 189.779 116.139 185.725L115.409 186.409ZM120.773 200.864L119.773 200.869C119.802 205.961 118.338 210.459 115.382 214.4L116.182 215L116.982 215.6C120.208 211.299 121.804 206.372 121.773 200.858L120.773 200.864ZM116.182 215L115.379 214.404C112.437 218.366 108.357 221.507 103.099 223.811L103.5 224.727L103.901 225.643C109.431 223.22 113.806 219.877 116.985 215.596L116.182 215ZM103.5 224.727L103.099 223.811C97.8523 226.11 91.8111 227.273 84.9545 227.273V228.273V229.273C92.0374 229.273 98.3598 228.072 103.901 225.643L103.5 224.727Z" fill="black" fill-opacity="0.25" mask="url(#path-23-outside-1_494_637)"/>
</g>
<defs>
<radialGradient id="paint0_radial_494_637" cx="0" cy="0" r="1" gradientUnits="userSpaceOnUse" gradientTransform="translate(85.7727 180.249) rotate(90) scale(78.6642 68.2356)">
<stop offset="0.673088" stop-color="#EDA13F"/>
<stop offset="0.822137" stop-color="#EDA13F" stop-opacity="0.75"/>
<stop offset="1" stop-color="#875C24"/>
</radialGradient>
<clipPath id="clip0_494_637">
<rect width="170" height="276" fill="white"/>
</clipPath>
</defs>
</svg>
