<svg width="170" height="276" viewBox="0 0 170 276" fill="none" xmlns="http://www.w3.org/2000/svg">
<g clip-path="url(#clip0_494_613)">
<path d="M90.2757 276.39C87.5319 276.39 84.788 276.39 81.9905 276.283C79.1214 274.5 76.2852 272.857 73.4954 271.139C69.2425 268.521 65.0371 265.825 60.7837 263.207C54.8035 259.527 48.7786 255.918 42.8086 252.221C36.5615 248.353 30.3715 244.393 24.1288 240.517C19.3919 237.577 14.6342 234.668 9.84319 231.816C6.18214 229.637 2.62824 227.398 1.07245 223.116C1.03178 223.004 0.626086 223.024 0.390625 222.983C0.390624 193.868 0.390624 164.752 0.490981 135.587C1.03705 134.856 1.41648 134.118 1.94128 133.504C3.34044 131.865 4.56167 129.933 6.28756 128.744C10.2343 126.026 14.4493 123.697 18.5378 121.182C22.5339 118.723 26.5081 116.229 30.6062 113.77C30.9066 113.677 31.0928 113.565 31.4177 113.437C38.5063 109.199 45.4561 104.977 52.5414 100.714C59.7415 96.3385 66.8062 92.0047 74.002 87.6471C75.5318 86.7039 76.9164 85.7624 78.3313 84.8689C82.5906 82.1793 86.9265 82.0811 91.3034 84.5725C93.0365 85.559 94.7396 86.5981 96.5588 87.7096C103.759 92.045 110.857 96.2839 118.053 100.619C124.576 104.601 130.992 108.499 137.433 112.356C138.175 112.8 139.059 113.006 140.004 113.384C140.785 113.952 141.398 114.525 142.101 114.951C144.309 116.293 146.553 117.574 148.777 118.888C153.528 121.696 158.277 124.504 163.021 127.322C165.365 128.714 167.534 130.256 168.664 132.914C169.035 133.786 169.804 134.49 170.391 135.271C170.391 164.387 170.391 193.502 170.281 222.671C169.981 223.033 169.793 223.343 169.602 223.651C168.606 225.248 167.958 227.318 166.547 228.351C162.469 231.34 158.105 233.946 153.814 236.638C145.447 241.887 137.052 247.092 128.67 252.317C124.539 254.892 120.408 257.468 116.28 260.048C112.03 262.704 107.814 265.417 103.526 268.011C99.1944 270.63 94.7893 273.128 90.432 275.705C90.293 275.787 90.3239 276.155 90.2757 276.39ZM14.5095 218.73C17.2096 220.721 19.7922 222.898 22.6295 224.67C36.8046 233.521 51.0454 242.268 65.2654 251.048C70.7431 254.43 76.2379 257.785 81.7034 261.187C84.7719 263.097 87.7072 263.164 90.8251 261.156C98.2595 256.367 105.779 251.709 113.26 246.991C126.79 238.457 140.321 229.921 153.843 221.374C155.986 220.019 157.084 217.999 157.087 215.498C157.11 191.525 157.111 167.551 157.088 143.577C157.086 141.209 155.995 139.276 153.975 138.048C146.308 133.385 138.599 128.791 130.91 124.166C116.923 115.753 102.936 107.34 88.9555 98.9162C86.2985 97.3151 83.5824 97.3266 80.997 98.8606C75.7405 101.979 70.5714 105.245 65.3634 108.445C49.4067 118.25 33.4622 128.075 17.4772 137.834C14.897 139.41 13.6337 141.46 13.6392 144.511C13.6817 167.899 13.6509 191.288 13.692 214.677C13.6942 215.939 14.1373 217.2 14.5095 218.73Z" fill="#DADBDF"/>
<path d="M35.5797 1.62051C35.5797 1.62051 35.7299 1.56808 35.9687 1.55995C37.0349 1.16449 37.8624 0.777159 38.6899 0.389832C38.6899 0.389832 38.8853 0.389832 39.0707 0.514636C40.3067 0.813691 41.3667 1.17804 42.4062 1.1271C45.7309 0.964177 49.048 0.647286 52.3681 0.389832C52.3681 0.389832 52.5635 0.389832 52.7152 0.549844C52.6925 1.71071 52.3669 2.71141 52.3659 3.71244C52.3387 30.4096 52.3414 57.1068 52.3481 83.804C52.3495 89.4543 52.386 95.1045 52.4063 100.755C45.4565 104.977 38.5067 109.199 31.4128 113.254C31.2684 80.7389 31.2436 48.3912 31.3013 16.0438C31.3078 12.3751 31.7779 8.70722 32.033 5.03898C32.033 5.03898 32.0403 5.06359 32.16 5.02574C32.4608 4.60232 32.642 4.21674 32.8231 3.83117C33.1243 3.49325 33.4255 3.15533 33.9714 2.76643C34.5295 2.44615 34.843 2.17684 35.1565 1.90752C35.1565 1.90752 35.1608 1.93638 35.2313 1.9003C35.4098 1.80045 35.5025 1.71921 35.5797 1.62051Z" fill="#E2161C"/>
<path d="M52.5415 100.714C52.3856 95.1045 52.3492 89.4543 52.3477 83.804C52.3411 57.1068 52.3383 30.4096 52.3656 3.71243C52.3666 2.7114 52.6922 1.7107 52.8125 0.549834C59.6709 0.389822 66.5833 0.389822 73.6327 0.567497C73.809 5.95342 73.8482 11.1617 73.8513 16.5301C73.8384 17.2349 73.8615 17.7796 73.8504 18.5041C73.8118 34.4337 73.7982 50.1836 73.8072 65.9334C73.8112 72.8014 73.8613 79.6694 73.8585 86.6766C73.8414 87.1009 73.8561 87.3859 73.8709 87.6709C66.8062 92.0047 59.7416 96.3385 52.5415 100.714Z" fill="#F7F7F8"/>
<path d="M117.955 100.523C110.857 96.2839 103.759 92.045 96.5697 87.5338C96.4845 58.4398 96.4911 29.6181 96.5511 0.698193C96.5793 0.529965 96.554 0.459898 96.5288 0.389832C103.441 0.389832 110.354 0.389832 117.479 0.498528C117.801 0.795698 117.91 0.984171 118.014 1.35502C118.004 21.9051 117.991 42.2728 117.998 62.6405C118.003 75.0279 118.04 87.4153 118.033 99.9218C118.015 100.203 118.025 100.365 118.016 100.508C117.997 100.49 117.955 100.523 117.955 100.523Z" fill="#F8F8F7"/>
<path d="M96.3458 0.389832C96.5542 0.459898 96.5795 0.529965 96.4033 0.759768C95.4339 1.00187 94.6662 1.15297 93.8979 1.15569C87.9888 1.17664 82.0793 1.20054 76.1706 1.14682C74.7527 1.13393 74.2027 1.58705 74.231 3.04221C74.3028 6.73294 74.2735 10.4262 74.2364 14.118C74.2288 14.8697 74.0095 15.6193 73.8877 16.3699C73.8485 11.1617 73.8093 5.95343 73.8162 0.567507C81.2958 0.389832 88.7292 0.389832 96.3458 0.389832Z" fill="#033ACC"/>
<path d="M118.019 1.17264C117.91 0.984171 117.801 0.795698 117.662 0.498528C122.981 0.389832 128.331 0.389832 133.863 0.389832C134.667 0.949577 135.289 1.50932 135.817 2.19248C132.986 1.07157 130.082 1.10393 127.161 1.15483C124.115 1.20791 121.067 1.17049 118.019 1.17264Z" fill="#E50A0D"/>
<path d="M52.1845 0.389832C49.0476 0.647285 45.7305 0.964177 42.4058 1.1271C41.3662 1.17804 40.3063 0.813691 39.168 0.514635C43.3873 0.389832 47.6943 0.389832 52.1845 0.389832Z" fill="#DD0203"/>
<path d="M38.527 0.389832C37.8623 0.777159 37.0348 1.16449 36.0474 1.5489C36.248 1.22898 36.6085 0.911981 36.8524 0.492407C37.2786 0.389832 37.8214 0.389832 38.527 0.389832Z" fill="#DD0203"/>
<path d="M118.014 1.35502C121.067 1.17049 124.115 1.20791 127.161 1.15483C130.082 1.10393 132.986 1.07157 135.877 2.31557C136.029 2.31526 136.011 2.32787 136.046 2.44741C136.455 2.74261 136.831 2.91827 137.206 3.09393C137.206 3.09393 137.176 3.11379 137.183 3.2305C137.424 3.66508 137.658 3.98295 137.892 4.30082C139.449 6.46185 140.006 8.85454 139.935 11.5218C139.812 16.1303 139.894 20.7443 139.784 25.4005C139.586 24.0548 139.493 22.6645 139.388 21.0813C139.251 21.3945 139.157 21.5089 139.157 21.6233C139.146 29.4392 139.128 37.2551 139.168 45.0708C139.171 45.6405 139.605 46.2081 139.839 46.7767C139.858 54.5637 139.887 62.3507 139.893 70.1378C139.905 84.4169 139.902 98.696 139.892 113.149C139.06 113.006 138.175 112.8 137.434 112.356C130.992 108.499 124.576 104.601 118.054 100.619C117.955 100.523 117.997 100.49 118.084 100.452C118.135 100.211 118.099 100.007 118.062 99.8027C118.04 87.4153 118.003 75.0279 117.998 62.6405C117.991 42.2728 118.004 21.9051 118.014 1.35502Z" fill="#E1161C"/>
<path d="M73.8514 16.5301C74.0092 15.6193 74.2285 14.8697 74.2361 14.118C74.2732 10.4262 74.3025 6.73295 74.2307 3.04222C74.2024 1.58706 74.7524 1.13394 76.1703 1.14683C82.079 1.20055 87.9885 1.17665 93.8976 1.1557C94.6659 1.15298 95.4337 1.00189 96.3496 0.857941C96.491 29.6181 96.4844 58.4398 96.4671 87.4374C94.7397 86.5981 93.0367 85.559 91.3035 84.5725C86.9266 82.0811 82.5907 82.1793 78.3315 84.8689C76.9165 85.7625 75.5319 86.7039 74.0022 87.6472C73.8562 87.3859 73.8414 87.1009 73.9478 86.5428C74.1306 85.695 74.246 85.1204 74.2462 84.5457C74.2552 63.1577 74.2569 41.7697 74.2378 20.3817C74.2372 19.6958 74.0076 19.0101 73.8847 18.3242C73.8616 17.7796 73.8384 17.2349 73.8514 16.5301Z" fill="#0749CE"/>
<path d="M14.4423 218.596C14.1373 217.2 13.6942 215.939 13.692 214.677C13.6509 191.288 13.6817 167.899 13.6392 144.511C13.6336 141.46 14.897 139.41 17.4772 137.834C33.4622 128.075 49.4066 118.25 65.3634 108.445C70.5714 105.245 75.7405 101.979 80.997 98.8606C83.5823 97.3266 86.2985 97.3151 88.9555 98.9162C102.936 107.34 116.923 115.753 130.91 124.166C138.599 128.791 146.308 133.385 153.975 138.048C155.995 139.276 157.086 141.209 157.088 143.578C157.111 167.551 157.11 191.525 157.087 215.498C157.084 217.999 155.986 220.019 153.843 221.374C140.321 229.921 126.79 238.457 113.26 246.991C105.779 251.709 98.2594 256.367 90.8251 261.156C87.7072 263.164 84.7719 263.097 81.7034 261.187C76.2379 257.785 70.7431 254.43 65.2654 251.048C51.0454 242.268 36.8045 233.521 22.6295 224.67C19.7922 222.898 17.2095 220.721 14.4423 218.596ZM17.1947 152.229C17.1945 172.818 17.2149 193.408 17.162 213.998C17.1567 216.053 17.8379 217.494 19.6013 218.485C20.2808 218.867 20.9251 219.31 21.5889 219.721C34.8628 227.921 48.1373 236.121 61.4113 244.321C68.7679 248.866 76.1248 253.41 83.4797 257.958C85.3699 259.127 87.2099 259.228 89.1328 257.946C91.5123 256.36 93.9646 254.883 96.3833 253.355C106.443 247.002 116.503 240.648 126.562 234.294C134.642 229.19 142.712 224.07 150.809 218.993C152.741 217.782 153.735 216.261 153.625 213.869C153.464 210.369 153.583 206.856 153.583 203.348C153.582 184.058 153.562 164.767 153.608 145.477C153.613 143.176 152.92 141.596 150.82 140.395C145.121 137.135 139.521 133.703 133.898 130.313C123.653 124.138 113.418 117.945 103.18 111.759C98.1167 108.699 93.0421 105.658 87.9977 102.567C85.9077 101.287 83.946 101.109 81.8379 102.592C80.0871 103.822 78.1787 104.828 76.352 105.953C64.1738 113.453 52.004 120.967 39.8204 128.458C33.1197 132.579 26.4073 136.68 19.678 140.754C17.9616 141.793 17.0622 143.137 17.1709 145.215C17.286 147.418 17.1956 149.631 17.1947 152.229Z" fill="#ADB0B8"/>
<path d="M31.9097 5.10983C31.7776 8.70722 31.3075 12.3751 31.301 16.0438C31.2434 48.3912 31.2681 80.7389 31.2738 113.27C31.093 113.565 30.9068 113.677 30.6063 113.77C30.4929 85.0435 30.4937 56.336 30.602 27.31C30.7644 21.7427 30.8283 16.494 30.859 11.2451C30.8619 10.7486 30.6566 10.2509 30.548 9.75372C30.9608 8.22938 31.3737 6.70503 31.9097 5.10983Z" fill="#DD0203"/>
<path d="M139.866 46.5956C139.605 46.2081 139.171 45.6405 139.168 45.0708C139.128 37.2551 139.146 29.4392 139.157 21.6234C139.157 21.5089 139.251 21.3945 139.388 21.0813C139.493 22.6645 139.586 24.0548 139.758 25.5808C139.856 32.6159 139.874 39.5152 139.866 46.5956Z" fill="#E10509"/>
<path d="M137.916 4.17172C137.658 3.98296 137.424 3.66509 137.194 3.216C137.445 3.40406 137.693 3.72334 137.916 4.17172Z" fill="#E50A0D"/>
<path d="M137.153 2.9772C136.83 2.91828 136.455 2.74262 136.047 2.43686C136.376 2.49133 136.738 2.6759 137.153 2.9772Z" fill="#E50A0D"/>
<path d="M30.5216 9.93448C30.6565 10.2509 30.8618 10.7486 30.8589 11.2451C30.8282 16.494 30.7643 21.7427 30.6284 27.1274C30.5299 21.5473 30.5126 15.8312 30.5216 9.93448Z" fill="#DE1818"/>
<path d="M32.7057 3.88968C32.6415 4.21676 32.4604 4.60233 32.147 5.023C32.206 4.68812 32.3973 4.31815 32.7057 3.88968Z" fill="#DD0203"/>
<path d="M35.0254 1.92117C34.8428 2.17682 34.5293 2.44614 34.0757 2.71995C34.2552 2.46125 34.5748 2.19804 35.0254 1.92117Z" fill="#DD0203"/>
<path d="M35.4745 1.61432C35.5023 1.7192 35.4097 1.80044 35.2166 1.90183C35.2109 1.82901 35.2901 1.71857 35.4745 1.61432Z" fill="#DD0203"/>
<path d="M73.8505 18.5041C74.0076 19.0101 74.2372 19.6958 74.2378 20.3817C74.257 41.7697 74.2552 63.1577 74.2463 84.5457C74.246 85.1203 74.1306 85.695 73.9798 86.4035C73.8615 79.6694 73.8113 72.8014 73.8074 65.9334C73.7984 50.1836 73.8119 34.4338 73.8505 18.5041Z" fill="#033ACC"/>
<path d="M118.033 99.9218C118.098 100.007 118.135 100.211 118.103 100.471C118.025 100.365 118.014 100.203 118.033 99.9218Z" fill="#DE0C12"/>
<path d="M17 152C17.0008 149.597 17.6611 147.46 17.546 145.257C17.4374 143.179 18.3367 141.835 20.0531 140.796C26.7825 136.722 33.4948 132.621 40.1956 128.501C52.3791 121.009 64.5489 113.495 76.7272 105.995C78.5538 104.871 80.4623 103.864 82.213 102.634C84.3212 101.152 86.2828 101.329 88.3728 102.609C93.4173 105.7 98.4918 108.741 103.555 111.801C113.794 117.987 124.028 124.18 134.273 130.355C139.897 133.745 145.496 137.177 151.195 140.437C153.295 141.638 153.988 143.218 153.983 145.519C153.937 164.809 153.958 184.1 153.958 203.391C153.958 206.898 153.839 210.411 154 213.911C154.11 216.303 153.116 217.824 151.184 219.035C143.087 224.112 135.017 229.232 126.937 234.336C116.878 240.69 106.819 247.044 96.7585 253.397C94.3397 254.925 91.8874 256.402 89.508 257.988C87.5851 259.27 85.745 259.169 83.8548 258C76.4999 253.452 69.3566 249.545 62 245C48.7259 236.8 35.2379 227.963 21.964 219.763C21.3003 219.353 20.656 218.909 19.9765 218.527C18.213 217.536 16.9947 216.055 17 214C17.0529 193.41 16.9996 172.785 17 152ZM99.5 182.5C99.5 205.009 97 159.962 97 182.5C104.155 182.5 78.386 179 85.4998 179C85.4998 148.557 102 202.332 102 171.974C102 171.974 111.795 166.517 106 166.5C100.205 166.483 110.795 170.974 105 171C98.8463 195.333 114.528 167.234 105.5 174.5C96.4722 181.766 106.935 170.371 100.5 175C100.087 175.297 101.227 174.044 101.223 174.5C101.164 180.523 96.5 174.637 96.5 181C98.6133 179.701 84.8679 173.122 86.7231 171.974C90.5917 169.581 95.1095 183.357 99 181C99.3352 180.797 99.2397 180.798 99.5 182.5Z" fill="url(#paint0_radial_494_613)"/>
<mask id="path-23-outside-1_494_613" maskUnits="userSpaceOnUse" x="52" y="126" width="70" height="97" fill="black">
<rect fill="white" x="52" y="126" width="70" height="97"/>
<path d="M54.5455 222V207.818L87.6818 177.136C90.5 174.409 92.8636 171.955 94.7727 169.773C96.7121 167.591 98.1818 165.455 99.1818 163.364C100.182 161.242 100.682 158.955 100.682 156.5C100.682 153.773 100.061 151.424 98.8182 149.455C97.5758 147.455 95.8788 145.924 93.7273 144.864C91.5758 143.773 89.1364 143.227 86.4091 143.227C83.5606 143.227 81.0758 143.803 78.9545 144.955C76.8333 146.106 75.197 147.758 74.0455 149.909C72.8939 152.061 72.3182 154.621 72.3182 157.591H53.6364C53.6364 151.5 55.0152 146.212 57.7727 141.727C60.5303 137.242 64.3939 133.773 69.3636 131.318C74.3333 128.864 80.0606 127.636 86.5455 127.636C93.2121 127.636 99.0152 128.818 103.955 131.182C108.924 133.515 112.788 136.758 115.545 140.909C118.303 145.061 119.682 149.818 119.682 155.182C119.682 158.697 118.985 162.167 117.591 165.591C116.227 169.015 113.788 172.818 110.273 177C106.758 181.152 101.803 186.136 95.4091 191.955L81.8182 205.273V205.909H120.909V222H54.5455Z"/>
</mask>
<path d="M54.5455 222V207.818L87.6818 177.136C90.5 174.409 92.8636 171.955 94.7727 169.773C96.7121 167.591 98.1818 165.455 99.1818 163.364C100.182 161.242 100.682 158.955 100.682 156.5C100.682 153.773 100.061 151.424 98.8182 149.455C97.5758 147.455 95.8788 145.924 93.7273 144.864C91.5758 143.773 89.1364 143.227 86.4091 143.227C83.5606 143.227 81.0758 143.803 78.9545 144.955C76.8333 146.106 75.197 147.758 74.0455 149.909C72.8939 152.061 72.3182 154.621 72.3182 157.591H53.6364C53.6364 151.5 55.0152 146.212 57.7727 141.727C60.5303 137.242 64.3939 133.773 69.3636 131.318C74.3333 128.864 80.0606 127.636 86.5455 127.636C93.2121 127.636 99.0152 128.818 103.955 131.182C108.924 133.515 112.788 136.758 115.545 140.909C118.303 145.061 119.682 149.818 119.682 155.182C119.682 158.697 118.985 162.167 117.591 165.591C116.227 169.015 113.788 172.818 110.273 177C106.758 181.152 101.803 186.136 95.4091 191.955L81.8182 205.273V205.909H120.909V222H54.5455Z" fill="#5F5F5F"/>
<path d="M54.5455 222H53.5455V223H54.5455V222ZM54.5455 207.818L53.866 207.084L53.5455 207.381V207.818H54.5455ZM87.6818 177.136L88.3612 177.87L88.3693 177.863L88.3772 177.855L87.6818 177.136ZM94.7727 169.773L94.0253 169.108L94.0202 169.114L94.7727 169.773ZM99.1818 163.364L100.084 163.795L100.086 163.79L99.1818 163.364ZM98.8182 149.455L97.9687 149.982L97.9724 149.988L98.8182 149.455ZM93.7273 144.864L93.275 145.756L93.2851 145.761L93.7273 144.864ZM74.0455 149.909L74.9271 150.381V150.381L74.0455 149.909ZM72.3182 157.591V158.591H73.3182V157.591H72.3182ZM53.6364 157.591H52.6364V158.591H53.6364V157.591ZM57.7727 141.727L58.6246 142.251V142.251L57.7727 141.727ZM69.3636 131.318L68.9208 130.422V130.422L69.3636 131.318ZM103.955 131.182L103.523 132.084L103.53 132.087L103.955 131.182ZM115.545 140.909L114.712 141.462V141.462L115.545 140.909ZM117.591 165.591L116.665 165.214L116.662 165.221L117.591 165.591ZM110.273 177L111.036 177.646L111.038 177.643L110.273 177ZM95.4091 191.955L94.7361 191.215L94.7224 191.227L94.7092 191.24L95.4091 191.955ZM81.8182 205.273L81.1183 204.558L80.8182 204.853V205.273H81.8182ZM81.8182 205.909H80.8182V206.909H81.8182V205.909ZM120.909 205.909H121.909V204.909H120.909V205.909ZM120.909 222V223H121.909V222H120.909ZM54.5455 222H55.5455V207.818H54.5455H53.5455V222H54.5455ZM54.5455 207.818L55.2249 208.552L88.3612 177.87L87.6818 177.136L87.0024 176.403L53.866 207.084L54.5455 207.818ZM87.6818 177.136L88.3772 177.855C91.2089 175.115 93.5929 172.64 95.5253 170.431L94.7727 169.773L94.0202 169.114C92.1343 171.269 89.7911 173.704 86.9864 176.418L87.6818 177.136ZM94.7727 169.773L95.5201 170.437C97.5064 168.203 99.0347 165.989 100.084 163.795L99.1818 163.364L98.2797 162.932C97.329 164.92 95.9178 166.979 94.0253 169.108L94.7727 169.773ZM99.1818 163.364L100.086 163.79C101.152 161.529 101.682 159.095 101.682 156.5H100.682H99.6818C99.6818 158.814 99.2115 160.956 98.2773 162.937L99.1818 163.364ZM100.682 156.5H101.682C101.682 153.617 101.023 151.076 99.664 148.921L98.8182 149.455L97.9724 149.988C99.0979 151.772 99.6818 153.929 99.6818 156.5H100.682ZM98.8182 149.455L99.6676 148.927C98.3247 146.765 96.4852 145.108 94.1694 143.967L93.7273 144.864L93.2851 145.761C95.2724 146.74 96.8269 148.144 97.9687 149.982L98.8182 149.455ZM93.7273 144.864L94.1795 143.972C91.8705 142.801 89.2728 142.227 86.4091 142.227V143.227V144.227C88.9999 144.227 91.281 144.744 93.275 145.756L93.7273 144.864ZM86.4091 143.227V142.227C83.424 142.227 80.7694 142.831 78.4775 144.076L78.9545 144.955L79.4316 145.833C81.3821 144.775 83.6972 144.227 86.4091 144.227V143.227ZM78.9545 144.955L78.4775 144.076C76.1825 145.322 74.4064 147.115 73.1638 149.437L74.0455 149.909L74.9271 150.381C75.9875 148.4 77.4842 146.891 79.4316 145.833L78.9545 144.955ZM74.0455 149.909L73.1638 149.437C71.9195 151.762 71.3182 154.492 71.3182 157.591H72.3182H73.3182C73.3182 154.75 73.8684 152.359 74.9271 150.381L74.0455 149.909ZM72.3182 157.591V156.591H53.6364V157.591V158.591H72.3182V157.591ZM53.6364 157.591H54.6364C54.6364 151.655 55.9783 146.555 58.6246 142.251L57.7727 141.727L56.9209 141.203C54.052 145.869 52.6364 151.345 52.6364 157.591H53.6364ZM57.7727 141.727L58.6246 142.251C61.2783 137.935 64.9961 134.591 69.8065 132.215L69.3636 131.318L68.9208 130.422C63.7917 132.955 59.7823 136.55 56.9209 141.203L57.7727 141.727ZM69.3636 131.318L69.8065 132.215C74.6169 129.839 80.1882 128.636 86.5455 128.636V127.636V126.636C79.933 126.636 74.0498 127.888 68.9208 130.422L69.3636 131.318ZM86.5455 127.636V128.636C93.0946 128.636 98.7444 129.797 103.523 132.084L103.955 131.182L104.386 130.28C99.2859 127.839 93.3296 126.636 86.5455 126.636V127.636ZM103.955 131.182L103.53 132.087C108.351 134.351 112.066 137.479 114.712 141.462L115.545 140.909L116.378 140.356C113.51 136.037 109.498 132.68 104.38 130.277L103.955 131.182ZM115.545 140.909L114.712 141.462C117.353 145.437 118.682 149.999 118.682 155.182H119.682H120.682C120.682 149.637 119.253 144.684 116.378 140.356L115.545 140.909ZM119.682 155.182H118.682C118.682 158.561 118.012 161.903 116.665 165.214L117.591 165.591L118.517 165.968C119.957 162.43 120.682 158.833 120.682 155.182H119.682ZM117.591 165.591L116.662 165.221C115.352 168.51 112.983 172.221 109.507 176.357L110.273 177L111.038 177.643C114.592 173.415 117.103 169.52 118.52 165.961L117.591 165.591ZM110.273 177L109.51 176.354C106.034 180.459 101.114 185.411 94.7361 191.215L95.4091 191.955L96.0821 192.694C102.492 186.862 107.481 181.844 111.036 177.646L110.273 177ZM95.4091 191.955L94.7092 191.24L81.1183 204.558L81.8182 205.273L82.5181 205.987L96.109 192.669L95.4091 191.955ZM81.8182 205.273H80.8182V205.909H81.8182H82.8182V205.273H81.8182ZM81.8182 205.909V206.909H120.909V205.909V204.909H81.8182V205.909ZM120.909 205.909H119.909V222H120.909H121.909V205.909H120.909ZM120.909 222V221H54.5455V222V223H120.909V222Z" fill="black" fill-opacity="0.25" mask="url(#path-23-outside-1_494_613)"/>
</g>
<defs>
<radialGradient id="paint0_radial_494_613" cx="0" cy="0" r="1" gradientUnits="userSpaceOnUse" gradientTransform="translate(85.5041 180.249) rotate(90) scale(78.6642 68.5041)">
<stop offset="0.576928" stop-color="#E4E4E7"/>
<stop offset="0.740401" stop-color="#E5E5E8" stop-opacity="0.9"/>
<stop offset="1" stop-color="#7F7F81"/>
</radialGradient>
<clipPath id="clip0_494_613">
<rect width="170" height="276" fill="white"/>
</clipPath>
</defs>
</svg>
